<svg width="16" height="15" viewBox="0 0 16 15" fill="none" xmlns="http://www.w3.org/2000/svg">
<g clip-path="url(#clip0_2_1357)">
<path d="M5.49754 8.43738H3.85804C3.79589 8.43738 3.7363 8.41269 3.69235 8.36875C3.64841 8.32481 3.62372 8.26521 3.62372 8.20306V7.73444C3.62372 7.70367 3.62979 7.6732 3.64156 7.64477C3.65334 7.61635 3.6706 7.59052 3.69235 7.56876C3.71411 7.547 3.73994 7.52974 3.76837 7.51797C3.7968 7.50619 3.82727 7.50013 3.85804 7.50013H5.49754V5.62496H3.85804C3.79589 5.62496 3.7363 5.60027 3.69235 5.55633C3.64841 5.51239 3.62372 5.45279 3.62372 5.39065V4.92203C3.62355 4.89114 3.62947 4.86053 3.64117 4.83194C3.65286 4.80336 3.6701 4.77737 3.69187 4.75546C3.71365 4.73356 3.73954 4.71618 3.76805 4.70432C3.79657 4.69246 3.82715 4.68636 3.85804 4.68636H5.49754V2.81254H3.85804C3.79636 2.81255 3.73717 2.78824 3.69331 2.74488C3.64944 2.70152 3.62444 2.64262 3.62372 2.58095V2.11233C3.62372 2.05018 3.64841 1.99059 3.69235 1.94664C3.7363 1.9027 3.79589 1.87802 3.85804 1.87802H5.49754V0.937375C5.49736 0.688975 5.39865 0.45079 5.22307 0.275081C5.04748 0.0993717 4.80937 0.000489374 4.56097 0.0001297L1.74856 0.0001297C1.50004 0.00030959 1.26175 0.0991126 1.08602 0.274841C0.910293 0.45057 0.81149 0.688857 0.81131 0.937375V14.0629C0.81678 14.1406 0.832304 14.2173 0.857493 14.2911L5.49754 9.64968V8.43738ZM14.87 10.3125H13.9327V11.9534C13.9327 12.0155 13.9081 12.0751 13.8641 12.1191C13.8202 12.163 13.7606 12.1877 13.6984 12.1877H13.2298C13.1677 12.1877 13.1081 12.163 13.0641 12.1191C13.0202 12.0751 12.9955 12.0155 12.9955 11.9534V10.3125H11.1237V11.9534C11.1237 12.0155 11.099 12.0751 11.0551 12.1191C11.0112 12.163 10.9516 12.1877 10.8894 12.1877H10.4208C10.3898 12.1881 10.359 12.1823 10.3303 12.1707C10.3015 12.159 10.2754 12.1418 10.2533 12.1201C10.2313 12.0983 10.2138 12.0723 10.2019 12.0437C10.1899 12.0151 10.1838 11.9844 10.1838 11.9534V10.3125H8.31131V11.9534C8.31131 12.0155 8.28662 12.0751 8.24268 12.1191C8.19874 12.163 8.13914 12.1877 8.077 12.1877H7.60838C7.57761 12.1877 7.54714 12.1817 7.51871 12.1699C7.49028 12.1581 7.46445 12.1408 7.44269 12.1191C7.42094 12.0973 7.40368 12.0715 7.3919 12.0431C7.38013 12.0146 7.37406 11.9842 7.37406 11.9534V10.3125H6.16176L1.52036 14.9539C1.59411 14.9791 1.67082 14.9946 1.74856 15.0001H14.8741C15.1226 15 15.3609 14.9011 15.5366 14.7254C15.7123 14.5497 15.8111 14.3114 15.8113 14.0629V11.2498C15.8111 11.0013 15.7123 10.763 15.5366 10.5873C15.3609 10.4115 15.1226 10.3127 14.8741 10.3125H14.87Z" fill="#EEA820"/>
</g>
<defs>
<clipPath id="clip0_2_1357">
<rect width="15" height="15" fill="white" transform="translate(0.811462)"/>
</clipPath>
</defs>
</svg>
