<svg width="16" height="15" viewBox="0 0 16 15" fill="none" xmlns="http://www.w3.org/2000/svg">
<path d="M15.1631 4.40753C15.1271 3.60889 14.998 3.06245 14.815 2.58507C14.623 2.09267 14.3679 1.67234 13.9508 1.25801C13.5337 0.843675 13.1167 0.582466 12.6246 0.393315C12.1475 0.207166 11.6014 0.0810649 10.8032 0.045036C10.002 0.0090072 9.74699 0 7.71258 0C5.67517 0 5.42012 0.0090072 4.62196 0.045036C3.8238 0.0810649 3.27769 0.210168 2.8006 0.393315C2.3055 0.585468 1.88542 0.840672 1.47133 1.25801C1.05725 1.67534 0.796197 2.09267 0.607159 2.58507C0.424123 3.06245 0.295097 3.60889 0.25909 4.40753C0.223083 5.20917 0.214081 5.46437 0.214081 7.5C0.214081 9.53863 0.223083 9.79383 0.25909 10.5925C0.295097 11.3911 0.424123 11.9376 0.607159 12.4149C0.799198 12.9073 1.05425 13.3277 1.47133 13.742C1.88542 14.1593 2.3055 14.4175 2.7976 14.6067C3.27469 14.7928 3.8208 14.9189 4.61896 14.955C5.42012 14.991 5.67517 15 7.70958 15C9.74699 15 10.002 14.991 10.8002 14.955C11.5984 14.9189 12.1445 14.7898 12.6216 14.6067C13.1137 14.4145 13.5337 14.1593 13.9478 13.742C14.3619 13.3247 14.623 12.9073 14.812 12.4149C14.998 11.9376 15.1241 11.3911 15.1601 10.5925C15.1961 9.79083 15.2051 9.53563 15.2051 7.5C15.2051 5.46437 15.1991 5.20617 15.1631 4.40753ZM13.8158 10.5324C13.7828 11.265 13.6598 11.6643 13.5577 11.9255C13.4227 12.2738 13.2577 12.526 12.9936 12.7902C12.7296 13.0544 12.4805 13.2136 12.1295 13.3547C11.8654 13.4568 11.4663 13.5799 10.7372 13.6129C9.94803 13.6489 9.71098 13.6579 7.70658 13.6579C5.70218 13.6579 5.46513 13.6489 4.67597 13.6129C3.94383 13.5799 3.54475 13.4568 3.28369 13.3547C2.93562 13.2196 2.68357 13.0544 2.41952 12.7902C2.15547 12.526 1.99644 12.2768 1.85541 11.9255C1.75339 11.6613 1.63036 11.262 1.59736 10.5324C1.56135 9.74279 1.55235 9.5056 1.55235 7.5C1.55235 5.4944 1.56135 5.25721 1.59736 4.46757C1.63036 3.73499 1.75339 3.33567 1.85541 3.07446C1.99044 2.72618 2.15547 2.47398 2.41952 2.20977C2.68357 1.94556 2.93262 1.78643 3.28369 1.64532C3.54775 1.54323 3.94683 1.42014 4.67597 1.38711C5.46513 1.35108 5.70218 1.34207 7.70658 1.34207C9.71098 1.34207 9.94803 1.35108 10.7372 1.38711C11.4693 1.42014 11.8684 1.54323 12.1295 1.64532C12.4775 1.78042 12.7296 1.94556 12.9936 2.20977C13.2577 2.47398 13.4167 2.72318 13.5577 3.07446C13.6598 3.33867 13.7828 3.73799 13.8158 4.46757C13.8518 5.25721 13.8608 5.4944 13.8608 7.5C13.8608 9.5056 13.8488 9.74279 13.8158 10.5324Z" fill="url(#paint0_linear_156_186)"/>
<path d="M7.70659 3.6449C5.57617 3.6449 3.85382 5.37128 3.85382 7.49998C3.85382 9.63169 5.57917 11.3551 7.70659 11.3551C9.83402 11.3551 11.5594 9.62568 11.5594 7.49998C11.5594 5.36828 9.83702 3.6449 7.70659 3.6449ZM7.70659 10.001C6.32632 10.001 5.20709 8.88109 5.20709 7.49998C5.20709 6.11888 6.32632 4.99898 7.70659 4.99898C9.08687 4.99898 10.2061 6.11888 10.2061 7.49998C10.2061 8.88109 9.08687 10.001 7.70659 10.001Z" fill="url(#paint1_linear_156_186)"/>
<path d="M11.7094 4.39556C12.2065 4.39556 12.6096 3.99229 12.6096 3.49484C12.6096 2.99738 12.2065 2.59412 11.7094 2.59412C11.2122 2.59412 10.8092 2.99738 10.8092 3.49484C10.8092 3.99229 11.2122 4.39556 11.7094 4.39556Z" fill="#BC30A0"/>
<path d="M0.205078 7.5C0.205078 9.53863 0.21408 9.79383 0.250087 10.5925C0.286094 11.3911 0.41512 11.9376 0.598157 12.4149C0.790195 12.9073 1.04525 13.3277 1.46233 13.742C1.87641 14.1563 2.2965 14.4175 2.78859 14.6067C3.26569 14.7928 3.8118 14.9189 4.60996 14.955C5.41112 14.991 5.66617 15 7.70058 15C9.73798 15 9.99304 14.991 10.7912 14.955C11.5894 14.9189 12.1355 14.7898 12.6126 14.6067C13.1047 14.4145 13.5247 14.1593 13.9388 13.742C14.3529 13.3277 14.614 12.9073 14.803 12.4149C14.989 11.9376 15.1151 11.3911 15.1511 10.5925C15.1871 9.79083 15.1961 9.53563 15.1961 7.5C15.1961 5.46137 15.1871 5.20617 15.1511 4.40753C15.1151 3.60889 14.986 3.06245 14.803 2.58507C14.611 2.09267 14.3559 1.67234 13.9388 1.25801C13.5277 0.840672 13.1077 0.582466 12.6156 0.393315C12.1385 0.207166 11.5924 0.0810649 10.7942 0.045036C9.99304 0.0090072 9.73798 0 7.70358 0C5.66617 0 5.41112 0.0090072 4.61296 0.045036C3.8148 0.0810649 3.26869 0.210168 2.7916 0.393315C2.2995 0.585468 1.87941 0.840672 1.46533 1.25801C1.05125 1.67534 0.790195 2.09267 0.601157 2.58507C0.41512 3.06245 0.286094 3.60889 0.250087 4.40753C0.21408 5.20617 0.205078 5.46137 0.205078 7.5ZM1.55835 7.5C1.55835 5.4974 1.56735 5.25721 1.60336 4.46757C1.63636 3.73499 1.75939 3.33567 1.86141 3.07446C1.99644 2.72618 2.16147 2.47398 2.42552 2.20977C2.68957 1.94556 2.93862 1.78643 3.2897 1.64532C3.55375 1.54323 3.95283 1.42014 4.68197 1.38711C5.47113 1.35108 5.70818 1.34207 7.71258 1.34207C9.71698 1.34207 9.95403 1.35108 10.7432 1.38711C11.4753 1.42014 11.8744 1.54323 12.1355 1.64532C12.4835 1.78042 12.7356 1.94556 12.9996 2.20977C13.2637 2.47398 13.4227 2.72318 13.5638 3.07446C13.6658 3.33867 13.7888 3.73799 13.8218 4.46757C13.8578 5.25721 13.8668 5.4944 13.8668 7.5C13.8668 9.5056 13.8578 9.74279 13.8218 10.5324C13.7888 11.265 13.6658 11.6643 13.5638 11.9255C13.4287 12.2738 13.2637 12.526 12.9996 12.7902C12.7356 13.0544 12.4865 13.2136 12.1355 13.3547C11.8714 13.4568 11.4723 13.5799 10.7432 13.6129C9.95403 13.6489 9.71698 13.6579 7.71258 13.6579C5.70818 13.6579 5.47113 13.6489 4.68197 13.6129C3.94983 13.5799 3.55075 13.4568 3.2897 13.3547C2.94163 13.2196 2.68957 13.0544 2.42552 12.7902C2.16147 12.526 2.00244 12.2768 1.86141 11.9255C1.75939 11.6613 1.63636 11.262 1.60336 10.5324C1.56435 9.74279 1.55835 9.5026 1.55835 7.5Z" fill="url(#paint2_linear_156_186)"/>
<defs>
<linearGradient id="paint0_linear_156_186" x1="12.8898" y1="1.147" x2="2.03823" y2="14.4423" gradientUnits="userSpaceOnUse">
<stop stop-color="#AE3DAE"/>
<stop offset="0.0468721" stop-color="#B23BA6"/>
<stop offset="0.1216" stop-color="#BD368E"/>
<stop offset="0.2148" stop-color="#CE2E69"/>
<stop offset="0.3216" stop-color="#E62335"/>
<stop offset="0.418" stop-color="#FF1800"/>
</linearGradient>
<linearGradient id="paint1_linear_156_186" x1="9.544" y1="4.40802" x2="5.60189" y2="11.0321" gradientUnits="userSpaceOnUse">
<stop stop-color="#E12F6A"/>
<stop offset="0.1705" stop-color="#EA3751"/>
<stop offset="0.3563" stop-color="#F13D3E"/>
<stop offset="0.5467" stop-color="#F64133"/>
<stop offset="0.7469" stop-color="#F7422F"/>
<stop offset="0.7946" stop-color="#F74C2F"/>
<stop offset="0.8743" stop-color="#F7652F"/>
<stop offset="0.9757" stop-color="#F78F2E"/>
<stop offset="1" stop-color="#F79A2E"/>
</linearGradient>
<linearGradient id="paint2_linear_156_186" x1="11.1039" y1="-0.617519" x2="4.46376" y2="15.2102" gradientUnits="userSpaceOnUse">
<stop offset="0.2341" stop-color="#9E35A5" stop-opacity="0"/>
<stop offset="0.4512" stop-color="#D42F7F" stop-opacity="0.5"/>
<stop offset="0.7524" stop-color="#F7772E"/>
<stop offset="0.9624" stop-color="#FEF780"/>
</linearGradient>
</defs>
</svg>
