<svg width="16" height="15" viewBox="0 0 16 15" fill="none" xmlns="http://www.w3.org/2000/svg">
<g clip-path="url(#clip0_156_178)">
<path d="M0.205078 2.00112C0.205078 1.51848 0.374002 1.12032 0.711835 0.806619C1.04967 0.492908 1.48887 0.33606 2.0294 0.33606C2.5603 0.33606 2.98982 0.49049 3.31801 0.79938C3.65585 1.11791 3.82477 1.53296 3.82477 2.04455C3.82477 2.50787 3.66068 2.89396 3.33249 3.20285C2.99466 3.52139 2.55064 3.68065 2.00045 3.68065H1.98597C1.45507 3.68065 1.02555 3.52139 0.697356 3.20285C0.369166 2.88432 0.205078 2.48374 0.205078 2.00112ZM0.393302 14.67V4.99822H3.60759V14.67H0.393302ZM5.38848 14.67H8.60276V9.26946C8.60276 8.93161 8.64138 8.67099 8.71859 8.4876C8.85372 8.15941 9.05884 7.8819 9.33394 7.65507C9.60904 7.42824 9.95411 7.31482 10.3692 7.31482C11.4503 7.31482 11.9908 8.04358 11.9908 9.50112V14.67H15.2051V9.12467C15.2051 7.69609 14.8672 6.6126 14.1916 5.87419C13.5159 5.13577 12.623 4.76656 11.513 4.76656C10.2678 4.76656 9.29774 5.30228 8.60276 6.3737V6.40266H8.58828L8.60276 6.3737V4.99822H5.38848C5.40778 5.3071 5.41743 6.26752 5.41743 7.8795C5.41743 9.49146 5.40778 11.755 5.38848 14.67Z" fill="#0A66C2"/>
</g>
<defs>
<clipPath id="clip0_156_178">
<rect width="15" height="15" fill="white" transform="translate(0.205078)"/>
</clipPath>
</defs>
</svg>
