<svg width="9" height="15" viewBox="0 0 9 15" fill="none" xmlns="http://www.w3.org/2000/svg">
<g clip-path="url(#clip0_2_1487)">
<path d="M4.50033 0.500185C3.90919 0.499665 3.32375 0.626059 2.77752 0.872135C2.23128 1.11821 1.73497 1.47914 1.31697 1.93427C0.898966 2.38941 0.567483 2.92981 0.341483 3.52457C0.115484 4.11933 -0.000598101 4.75678 -0.000120603 5.40043C-0.000120603 9.07512 4.50033 14.5002 4.50033 14.5002C4.50033 14.5002 9.00079 9.07512 9.00079 5.40043C9.00126 4.75678 8.88518 4.11933 8.65918 3.52457C8.43318 2.92981 8.1017 2.38941 7.6837 1.93427C7.2657 1.47914 6.76938 1.11821 6.22315 0.872135C5.67691 0.626059 5.09148 0.499665 4.50033 0.500185ZM4.50033 7.14981C4.18239 7.14981 3.87158 7.04716 3.60722 6.85482C3.34286 6.66249 3.13681 6.38912 3.01514 6.06928C2.89347 5.74944 2.86163 5.3975 2.92366 5.05796C2.98569 4.71842 3.13879 4.40654 3.36361 4.16174C3.58844 3.91695 3.87488 3.75024 4.18671 3.68271C4.49855 3.61517 4.82178 3.64983 5.11552 3.78231C5.40927 3.91479 5.66033 4.13914 5.83697 4.42699C6.01361 4.71484 6.1079 5.05325 6.1079 5.39944C6.1079 5.86367 5.93853 6.30888 5.63705 6.63714C5.33558 6.9654 4.92669 7.14981 4.50033 7.14981Z" fill="white"/>
</g>
<defs>
<clipPath id="clip0_2_1487">
<rect width="9" height="14" fill="white" transform="translate(0 0.5)"/>
</clipPath>
</defs>
</svg>
