<svg width="16" height="15" viewBox="0 0 16 15" fill="none" xmlns="http://www.w3.org/2000/svg">
<g clip-path="url(#clip0_156_182)">
<path d="M13.3657 4.48797C13.3715 4.61997 13.3715 4.74597 13.3715 4.87797C13.3773 8.87999 10.437 13.5 5.05997 13.5C3.47407 13.5 1.9171 13.026 0.580078 12.138C0.811597 12.168 1.04312 12.18 1.27464 12.18C2.58851 12.18 3.86765 11.724 4.9037 10.878C3.65349 10.854 2.55378 10.008 2.17177 8.77199C2.61166 8.86199 3.06312 8.84399 3.49143 8.71799C2.13126 8.44198 1.15309 7.19998 1.1473 5.75398C1.1473 5.74198 1.1473 5.72998 1.1473 5.71798C1.55246 5.95198 2.00971 6.08398 2.47275 6.09598C1.1936 5.20797 0.794233 3.43797 1.56982 2.05196C3.05733 3.94797 5.24519 5.09397 7.59511 5.21997C7.3578 4.16997 7.68193 3.06597 8.44015 2.32196C9.61511 1.17596 11.4673 1.23596 12.5786 2.45396C13.2326 2.32196 13.8635 2.06996 14.4365 1.71596C14.2166 2.41796 13.7593 3.01197 13.1516 3.38997C13.7304 3.31797 14.2976 3.15597 14.8301 2.91597C14.4365 3.52797 13.9387 4.05597 13.3657 4.48797Z" fill="#1D9BF0"/>
</g>
<defs>
<clipPath id="clip0_156_182">
<rect x="0.205078" width="15" height="15" rx="6" fill="white"/>
</clipPath>
</defs>
</svg>
