<svg width="21" height="20" viewBox="0 0 21 20" fill="none" xmlns="http://www.w3.org/2000/svg">
<path fill-rule="evenodd" clip-rule="evenodd" d="M3.53839 4.16667C3.08196 4.16667 2.70506 4.54357 2.70506 5V15C2.70506 15.4564 3.08196 15.8333 3.53839 15.8333H16.8717C17.3282 15.8333 17.7051 15.4564 17.7051 15V5C17.7051 4.54357 17.3282 4.16667 16.8717 4.16667H3.53839ZM1.03839 5C1.03839 3.6231 2.16149 2.5 3.53839 2.5H16.8717C18.2486 2.5 19.3717 3.6231 19.3717 5V15C19.3717 16.3769 18.2486 17.5 16.8717 17.5H3.53839C2.16149 17.5 1.03839 16.3769 1.03839 15V5Z" fill="#757575"/>
<path fill-rule="evenodd" clip-rule="evenodd" d="M1.18904 4.52215C1.45297 4.1451 1.97258 4.05341 2.34962 4.31734L10.2051 9.81615L18.0605 4.31734C18.4376 4.05341 18.9572 4.1451 19.2211 4.52215C19.485 4.89919 19.3933 5.4188 19.0163 5.68272L10.683 11.5161C10.396 11.7169 10.0141 11.7169 9.72718 11.5161L1.39385 5.68272C1.01681 5.4188 0.925113 4.89919 1.18904 4.52215Z" fill="#757575"/>
</svg>
