<svg width="21" height="20" viewBox="0 0 21 20" fill="none" xmlns="http://www.w3.org/2000/svg">
<path fill-rule="evenodd" clip-rule="evenodd" d="M10.2051 1.66667C8.43699 1.66667 6.7413 2.36905 5.49105 3.61929C4.24081 4.86953 3.53843 6.56522 3.53843 8.33333C3.53843 10.915 5.21821 13.4202 7.06006 15.3644C7.96394 16.3185 8.87066 17.0996 9.55233 17.6424C9.80603 17.8444 10.0276 18.0127 10.2051 18.1438C10.3826 18.0127 10.6042 17.8444 10.8579 17.6424C11.5395 17.0996 12.4463 16.3185 13.3501 15.3644C15.192 13.4202 16.8718 10.915 16.8718 8.33333C16.8718 6.56522 16.1694 4.86953 14.9191 3.61929C13.6689 2.36905 11.9732 1.66667 10.2051 1.66667ZM10.2051 19.1667C9.74285 19.86 9.74264 19.8599 9.7424 19.8597L9.74002 19.8582L9.73446 19.8544L9.71536 19.8415C9.69914 19.8305 9.676 19.8147 9.6464 19.7942C9.58721 19.7532 9.50215 19.6934 9.39492 19.616C9.18055 19.4612 8.87707 19.2352 8.51412 18.9462C7.78954 18.3692 6.82126 17.5357 5.85014 16.5106C3.94198 14.4965 1.87177 11.585 1.87177 8.33333C1.87177 6.1232 2.74974 4.00358 4.31254 2.44078C5.87535 0.877974 7.99496 0 10.2051 0C12.4152 0 14.5349 0.877974 16.0977 2.44078C17.6605 4.00358 18.5384 6.1232 18.5384 8.33333C18.5384 11.585 16.4682 14.4965 14.5601 16.5106C13.5889 17.5357 12.6207 18.3692 11.8961 18.9462C11.5331 19.2352 11.2296 19.4612 11.0153 19.616C10.908 19.6934 10.823 19.7532 10.7638 19.7942C10.7342 19.8147 10.7111 19.8305 10.6948 19.8415L10.6757 19.8544L10.6702 19.8582L10.6684 19.8593C10.6682 19.8595 10.6673 19.86 10.2051 19.1667ZM10.2051 19.1667L10.6673 19.86C10.3874 20.0467 10.0223 20.0464 9.7424 19.8597L10.2051 19.1667Z" fill="#757575"/>
<path fill-rule="evenodd" clip-rule="evenodd" d="M10.2051 6.66667C9.28462 6.66667 8.53843 7.41286 8.53843 8.33333C8.53843 9.25381 9.28462 10 10.2051 10C11.1256 10 11.8718 9.25381 11.8718 8.33333C11.8718 7.41286 11.1256 6.66667 10.2051 6.66667ZM6.87177 8.33333C6.87177 6.49238 8.36415 5 10.2051 5C12.046 5 13.5384 6.49238 13.5384 8.33333C13.5384 10.1743 12.046 11.6667 10.2051 11.6667C8.36415 11.6667 6.87177 10.1743 6.87177 8.33333Z" fill="#757575"/>
</svg>
