<svg width="111" height="75" viewBox="0 0 111 75" fill="none" xmlns="http://www.w3.org/2000/svg">
<path d="M6.0825 64.0845H1.65173C1.42096 64.0845 1.19019 64.0614 0.959421 64.0383C0.797882 64.0153 0.636344 63.946 0.497882 63.8537C0.382497 63.7614 0.290189 63.646 0.244036 63.5307C0.197882 63.3691 0.174805 63.2076 0.174805 63.046V61.9153H0.774805V62.8383C0.774805 62.9537 0.797882 63.0922 0.820959 63.2076C0.867113 63.2999 0.913267 63.3691 1.00557 63.4153C1.12096 63.4614 1.23634 63.5076 1.37481 63.5076C1.53634 63.5307 1.72096 63.5307 1.95173 63.5307H5.4825V61.3153H6.0825V64.0845ZM2.32096 60.4845C2.32096 60.2768 2.50558 60.0922 2.71327 60.0922C2.80558 60.0922 2.92096 60.1383 2.99019 60.2076C3.12865 60.3691 3.10558 60.623 2.94404 60.7614C2.80558 60.8768 2.57481 60.8768 2.43635 60.7614C2.34404 60.6691 2.29788 60.5768 2.32096 60.4845ZM3.26712 60.4845C3.26712 60.3922 3.31327 60.2768 3.3825 60.2076C3.54404 60.046 3.77481 60.046 3.93635 60.2076C4.09788 60.3691 4.09788 60.5999 3.93635 60.7614C3.77481 60.923 3.54404 60.923 3.3825 60.7614C3.29019 60.6691 3.26712 60.5768 3.26712 60.4845Z" fill="#313131" fill-opacity="0.6"/>
<path d="M7.69757 58.8693V64.0847H7.09756V58.8693H7.69757Z" fill="#313131" fill-opacity="0.6"/>
<path d="M11.1134 63.2765C11.1134 63.4842 11.0442 63.6919 10.8827 63.8534C10.6981 64.015 10.4442 64.1073 10.1904 64.0842H8.43652V63.4842H10.1211C10.2827 63.4842 10.3981 63.4611 10.4442 63.415C10.4904 63.3688 10.5134 63.2996 10.5134 63.2534C10.5134 63.2073 10.5134 63.1611 10.4904 63.0919C10.4442 62.9996 10.3981 62.9073 10.3519 62.8381C10.2827 62.7227 10.1673 62.5611 10.0288 62.3534C9.89037 62.1458 9.68268 61.8458 9.45191 61.4765L10.0058 61.1304C10.1904 61.4765 10.375 61.7534 10.5134 61.9842C10.6519 62.215 10.7673 62.3996 10.8596 62.5611C10.9288 62.6996 10.9981 62.8381 11.0673 62.9765C11.0904 63.0458 11.1134 63.1611 11.1134 63.2765Z" fill="#313131" fill-opacity="0.6"/>
<path d="M12.5893 58.8691V64.0845H11.9893V58.8691H12.5893Z" fill="#313131" fill-opacity="0.6"/>
<path d="M15.3593 64.0851C15.2208 64.0851 15.0824 64.062 14.967 63.9697C14.8747 63.9005 14.7824 63.8081 14.7362 63.7158C14.7362 64.0158 14.7131 64.3158 14.667 64.5928C14.6439 64.8005 14.5516 65.0081 14.4362 65.1697C14.3208 65.3312 14.1362 65.4466 13.9516 65.4928C13.6978 65.562 13.4208 65.6081 13.167 65.5851V65.0081C13.3516 65.0081 13.5362 64.9851 13.7208 64.9389C13.8362 64.8928 13.9516 64.8005 13.9978 64.6851C14.067 64.5466 14.1131 64.4081 14.1131 64.2466C14.1131 64.062 14.1362 63.8543 14.1362 63.6005V61.6389H14.7362V62.6774C14.7362 62.8851 14.7824 63.0928 14.8747 63.2543C14.9901 63.4158 15.1747 63.4851 15.3824 63.462C15.5208 63.4389 15.6593 63.5312 15.6824 63.6697C15.6824 63.6928 15.6824 63.7158 15.6824 63.7389C15.6824 63.8312 15.6593 63.9235 15.6131 63.9928C15.5208 64.062 15.4516 64.0851 15.3593 64.0851ZM14.0439 60.0466C14.0439 59.9543 14.0901 59.8389 14.1593 59.7697C14.2285 59.7005 14.3208 59.6543 14.4362 59.6543C14.5285 59.6543 14.6439 59.7005 14.7131 59.7697C14.7824 59.8389 14.8285 59.9312 14.8285 60.0466C14.8285 60.2543 14.667 60.4389 14.4362 60.4389C14.2055 60.4389 14.0439 60.2543 14.0439 60.0466Z" fill="#313131" fill-opacity="0.6"/>
<path d="M15.3586 64.0849C15.2201 64.108 15.0817 64.0157 15.0586 63.8772C15.0586 63.8542 15.0586 63.8311 15.0586 63.808C15.0586 63.7157 15.0817 63.6234 15.1278 63.5542C15.1971 63.508 15.2663 63.4849 15.3586 63.4849H16.4432C16.5817 63.4618 16.7201 63.5541 16.7432 63.6926C16.7432 63.7157 16.7432 63.7388 16.7432 63.7618C16.7432 63.8542 16.7201 63.9465 16.674 64.0157C16.6047 64.0618 16.5355 64.0849 16.4432 64.0849H15.3586Z" fill="#313131" fill-opacity="0.6"/>
<path d="M16.4428 64.0849C16.3044 64.108 16.1659 64.0157 16.1428 63.8772C16.1428 63.8542 16.1428 63.8311 16.1428 63.808C16.1428 63.7157 16.1659 63.6234 16.2121 63.5542C16.2813 63.508 16.3505 63.4849 16.4428 63.4849H17.5274C17.6659 63.4618 17.8044 63.5541 17.8274 63.6926C17.8274 63.7157 17.8274 63.7388 17.8274 63.7618C17.8274 63.8542 17.8044 63.9465 17.7582 64.0157C17.689 64.0618 17.6197 64.0849 17.5274 64.0849H16.4428Z" fill="#313131" fill-opacity="0.6"/>
<path d="M17.5285 64.085C17.3901 64.1081 17.2516 64.0158 17.2285 63.8773C17.2285 63.8542 17.2285 63.8311 17.2285 63.8081C17.2285 63.7157 17.2516 63.6234 17.2977 63.5542C17.367 63.5081 17.4362 63.485 17.5285 63.485H18.6131C18.7516 63.4619 18.8901 63.5542 18.9131 63.6927C18.9131 63.7157 18.9131 63.7388 18.9131 63.7619C18.9131 63.8542 18.8901 63.9465 18.8439 64.0158C18.7747 64.0619 18.7054 64.085 18.6131 64.085H17.5285Z" fill="#313131" fill-opacity="0.6"/>
<path d="M18.6135 64.085C18.475 64.1081 18.3366 64.0158 18.3135 63.8773C18.3135 63.8542 18.3135 63.8311 18.3135 63.8081C18.3135 63.7157 18.3366 63.6234 18.3827 63.5542C18.4519 63.5081 18.5212 63.485 18.6135 63.485H19.6981C19.8366 63.4619 19.975 63.5542 19.9981 63.6927C19.9981 63.7157 19.9981 63.7388 19.9981 63.7619C19.9981 63.8542 19.975 63.9465 19.9289 64.0158C19.8596 64.0619 19.7904 64.085 19.6981 64.085H18.6135Z" fill="#313131" fill-opacity="0.6"/>
<path d="M19.674 64.085C19.5356 64.1081 19.3971 64.0158 19.374 63.8773C19.374 63.8542 19.374 63.8311 19.374 63.8081C19.374 63.7157 19.3971 63.6234 19.4433 63.5542C19.5125 63.5081 19.5817 63.485 19.674 63.485H20.7586C20.8971 63.4619 21.0356 63.5542 21.0586 63.6927C21.0586 63.7157 21.0586 63.7388 21.0586 63.7619C21.0586 63.8542 21.0356 63.9465 20.9894 64.0158C20.9202 64.0619 20.8509 64.085 20.7586 64.085H19.674Z" fill="#313131" fill-opacity="0.6"/>
<path d="M20.758 64.085C20.6195 64.1081 20.4811 64.0158 20.458 63.8773C20.458 63.8542 20.458 63.8311 20.458 63.8081C20.458 63.7157 20.4811 63.6234 20.5272 63.5542C20.5965 63.5081 20.6657 63.485 20.758 63.485H21.8426C21.9811 63.4619 22.1195 63.5542 22.1426 63.6927C22.1426 63.7157 22.1426 63.7388 22.1426 63.7619C22.1426 63.8542 22.1195 63.9465 22.0734 64.0158C22.0042 64.0619 21.9349 64.085 21.8426 64.085H20.758Z" fill="#313131" fill-opacity="0.6"/>
<path d="M21.8439 64.085C21.7055 64.1081 21.567 64.0158 21.5439 63.8773C21.5439 63.8542 21.5439 63.8311 21.5439 63.8081C21.5439 63.7157 21.567 63.6234 21.6132 63.5542C21.6824 63.5081 21.7516 63.485 21.8439 63.485H22.9286C23.067 63.4619 23.2055 63.5542 23.2286 63.6927C23.2286 63.7157 23.2286 63.7388 23.2286 63.7619C23.2286 63.8542 23.2055 63.9465 23.1593 64.0158C23.0901 64.0619 23.0209 64.085 22.9286 64.085H21.8439Z" fill="#313131" fill-opacity="0.6"/>
<path d="M22.9288 64.0849C22.7904 64.108 22.6519 64.0157 22.6288 63.8772C22.6288 63.8542 22.6288 63.8311 22.6288 63.808C22.6288 63.7157 22.6519 63.6234 22.6981 63.5542C22.7673 63.508 22.8365 63.4849 22.9288 63.4849H24.0135C24.1519 63.4618 24.2904 63.5541 24.3135 63.6926C24.3135 63.7157 24.3135 63.7388 24.3135 63.7618C24.3135 63.8542 24.2904 63.9465 24.2442 64.0157C24.175 64.0618 24.1058 64.0849 24.0135 64.0849H22.9288Z" fill="#313131" fill-opacity="0.6"/>
<path d="M24.0121 64.0849C23.8737 64.108 23.7352 64.0157 23.7121 63.8772C23.7121 63.8542 23.7121 63.8311 23.7121 63.808C23.7121 63.7157 23.7352 63.6234 23.7814 63.5542C23.8506 63.508 23.9198 63.4849 24.0121 63.4849H25.0967C25.2352 63.4618 25.3737 63.5541 25.3967 63.6926C25.3967 63.7157 25.3967 63.7388 25.3967 63.7618C25.3967 63.8542 25.3737 63.9465 25.3275 64.0157C25.2583 64.0618 25.1891 64.0849 25.0967 64.0849H24.0121Z" fill="#313131" fill-opacity="0.6"/>
<path d="M25.0979 64.085C24.9594 64.1081 24.8209 64.0158 24.7979 63.8773C24.7979 63.8542 24.7979 63.8311 24.7979 63.8081C24.7979 63.7157 24.8209 63.6234 24.8671 63.5542C24.9363 63.5081 25.0055 63.485 25.0979 63.485H26.1825C26.3209 63.4619 26.4594 63.5542 26.4825 63.6927C26.4825 63.7157 26.4825 63.7388 26.4825 63.7619C26.4825 63.8542 26.4594 63.9465 26.4132 64.0158C26.344 64.0619 26.2748 64.085 26.1825 64.085H25.0979Z" fill="#313131" fill-opacity="0.6"/>
<path d="M26.1583 64.0849C26.0199 64.108 25.8814 64.0157 25.8583 63.8772C25.8583 63.8542 25.8583 63.8311 25.8583 63.808C25.8583 63.7157 25.8814 63.6234 25.9276 63.5542C25.9968 63.508 26.066 63.4849 26.1583 63.4849H27.243C27.3814 63.4618 27.5199 63.5541 27.543 63.6926C27.543 63.7157 27.543 63.7388 27.543 63.7618C27.543 63.8542 27.5199 63.9465 27.4737 64.0157C27.4045 64.0618 27.3353 64.0849 27.243 64.0849H26.1583Z" fill="#313131" fill-opacity="0.6"/>
<path d="M27.2424 64.085C27.1039 64.1081 26.9655 64.0158 26.9424 63.8773C26.9424 63.8542 26.9424 63.8311 26.9424 63.8081C26.9424 63.7157 26.9655 63.6234 27.0116 63.5542C27.0808 63.5081 27.1501 63.485 27.2424 63.485H28.327C28.4655 63.4619 28.6039 63.5542 28.627 63.6927C28.627 63.7157 28.627 63.7388 28.627 63.7619C28.627 63.8542 28.6039 63.9465 28.5578 64.0158C28.4885 64.0619 28.4193 64.085 28.327 64.085H27.2424Z" fill="#313131" fill-opacity="0.6"/>
<path d="M28.3273 64.085C28.1889 64.1081 28.0504 64.0158 28.0273 63.8773C28.0273 63.8542 28.0273 63.8311 28.0273 63.8081C28.0273 63.7157 28.0504 63.6234 28.0966 63.5542C28.1658 63.5081 28.235 63.485 28.3273 63.485H29.412C29.5504 63.4619 29.6889 63.5542 29.712 63.6927C29.712 63.7157 29.712 63.7388 29.712 63.7619C29.712 63.8542 29.6889 63.9465 29.6427 64.0158C29.5735 64.0619 29.5043 64.085 29.412 64.085H28.3273Z" fill="#313131" fill-opacity="0.6"/>
<path d="M29.4123 64.085C29.2738 64.1081 29.1354 64.0158 29.1123 63.8773C29.1123 63.8542 29.1123 63.8311 29.1123 63.8081C29.1123 63.7157 29.1354 63.6234 29.1815 63.5542C29.2508 63.5081 29.32 63.485 29.4123 63.485H30.4969C30.6354 63.4619 30.7738 63.5542 30.7969 63.6927C30.7969 63.7157 30.7969 63.7388 30.7969 63.7619C30.7969 63.8542 30.7738 63.9465 30.7277 64.0158C30.6585 64.0619 30.5892 64.085 30.4969 64.085H29.4123Z" fill="#313131" fill-opacity="0.6"/>
<path d="M30.4972 64.0849C30.3587 64.108 30.2203 64.0157 30.1972 63.8772C30.1972 63.8542 30.1972 63.8311 30.1972 63.808C30.1972 63.7157 30.2203 63.6234 30.2664 63.5542C30.3357 63.508 30.4049 63.4849 30.4972 63.4849H31.5818C31.7203 63.4618 31.8587 63.5541 31.8818 63.6926C31.8818 63.7157 31.8818 63.7388 31.8818 63.7618C31.8818 63.8542 31.8587 63.9465 31.8126 64.0157C31.7434 64.0618 31.6741 64.0849 31.5818 64.0849H30.4972Z" fill="#313131" fill-opacity="0.6"/>
<path d="M31.558 64.0849C31.4195 64.1079 31.2811 64.0156 31.258 63.8772C31.258 63.8541 31.258 63.831 31.258 63.8079C31.258 63.7156 31.2811 63.6233 31.3272 63.5541C31.3965 63.5079 31.4657 63.4849 31.558 63.4849H32.6426C32.7811 63.4618 32.9195 63.5541 32.9426 63.6925C32.9426 63.7156 32.9426 63.7387 32.9426 63.7618C32.9426 63.8541 32.9195 63.9464 32.8734 64.0156C32.8042 64.0618 32.7349 64.0849 32.6426 64.0849H31.558Z" fill="#313131" fill-opacity="0.6"/>
<path d="M37.1212 64.0847C36.9596 64.0847 36.7981 64.0616 36.6366 63.9693C36.4981 63.877 36.3827 63.7616 36.3135 63.6001V63.577C36.2212 63.7616 36.0827 63.9001 35.8981 64.0155C35.6904 64.1309 35.4596 64.177 35.2289 64.177C34.9981 64.177 34.7673 64.1309 34.5366 64.0616C34.2827 63.9693 34.0289 63.8309 33.8212 63.6693C33.775 63.7616 33.7058 63.8309 33.6366 63.9001C33.5673 63.9463 33.4981 63.9924 33.4289 64.0155C33.3596 64.0386 33.2673 64.0616 33.1981 64.0616C33.1058 64.0616 33.0366 64.0847 32.9442 64.0616H32.6212C32.4827 64.0847 32.3442 63.9924 32.3212 63.8539C32.3212 63.8309 32.3212 63.8078 32.3212 63.7847C32.3212 63.6924 32.3442 63.6001 32.3904 63.5309C32.4596 63.4847 32.5289 63.4616 32.6212 63.4616H32.9212C32.9904 63.4616 33.0366 63.4616 33.1058 63.4386C33.175 63.4155 33.2442 63.3924 33.2904 63.3462C33.3596 63.277 33.4289 63.2309 33.475 63.1386C33.5442 63.0232 33.6135 62.9078 33.6366 62.7924C33.7289 62.5386 33.8442 62.2847 33.9827 62.0309C34.075 61.8693 34.2135 61.7078 34.3519 61.5924C34.4673 61.5001 34.6058 61.4309 34.7442 61.3847C34.8827 61.3616 34.9981 61.3386 35.1366 61.3386C35.3212 61.3386 35.4827 61.3616 35.6442 61.4539C35.8058 61.5232 35.9442 61.6155 36.0596 61.7539C36.175 61.8924 36.2673 62.0539 36.3366 62.2155C36.4058 62.4001 36.4289 62.6078 36.4289 62.8155C36.4289 62.8386 36.4289 62.8847 36.4289 62.9078C36.4289 62.9309 36.4289 62.977 36.4289 63.0001C36.475 63.1386 36.5443 63.2539 36.6366 63.3462C36.775 63.4386 36.9135 63.4847 37.075 63.4616C37.2135 63.4386 37.3519 63.5309 37.375 63.6693C37.375 63.6924 37.375 63.7155 37.375 63.7386C37.375 63.8309 37.3519 63.9232 37.3058 63.9924C37.3058 64.0616 37.2135 64.0847 37.1212 64.0847ZM35.875 62.7924C35.875 62.677 35.8519 62.5847 35.8289 62.4693C35.8058 62.377 35.7596 62.2847 35.6904 62.1924C35.6212 62.1232 35.5519 62.0539 35.4596 62.0078C35.3673 61.9616 35.2519 61.9386 35.1596 61.9386C34.9519 61.9386 34.7442 62.0539 34.6058 62.2155C34.375 62.4924 34.2135 62.8155 34.1212 63.1616C34.2827 63.277 34.4673 63.3693 34.6519 63.4386C34.8366 63.5078 35.0212 63.5309 35.2058 63.5539C35.3904 63.5539 35.5519 63.5078 35.6904 63.3924C35.8289 63.2309 35.8981 63.0001 35.875 62.7924Z" fill="#313131" fill-opacity="0.6"/>
<path d="M37.144 64.0845C37.0055 64.1075 36.8671 64.0152 36.844 63.8768C36.844 63.8537 36.844 63.8306 36.844 63.8075C36.844 63.7152 36.8671 63.6229 36.9132 63.5537C36.9825 63.5075 37.0517 63.4845 37.144 63.4845H37.7209C37.7901 63.4845 37.8825 63.4845 37.9517 63.4614C38.0209 63.4614 38.0671 63.4383 38.1132 63.3922C38.1594 63.346 38.2055 63.2998 38.2286 63.2306C38.2517 63.1383 38.2748 63.046 38.2748 62.9537V58.8691H38.8748V62.6768C38.8748 62.8845 38.9209 63.0922 39.0132 63.2537C39.1286 63.3922 39.3132 63.4845 39.4978 63.4614C39.6363 63.4383 39.7748 63.5306 39.7978 63.6691C39.7978 63.6922 39.7978 63.7152 39.7978 63.7383C39.7978 63.8306 39.7748 63.9229 39.7286 63.9922C39.6594 64.0383 39.5902 64.0614 39.4978 64.0614C39.3363 64.0614 39.1748 64.0152 39.0363 63.9229C38.9209 63.8306 38.8517 63.7152 38.8055 63.5768C38.7363 63.7614 38.5748 63.8998 38.3901 63.9691C38.1594 64.0383 37.9055 64.0614 37.6517 64.0614L37.144 64.0845Z" fill="#313131" fill-opacity="0.6"/>
<path d="M39.4973 64.0845C39.3588 64.1076 39.2203 64.0153 39.1973 63.8768C39.1973 63.8538 39.1973 63.8307 39.1973 63.8076C39.1973 63.7153 39.2203 63.623 39.2665 63.5538C39.3357 63.5076 39.405 63.4845 39.4973 63.4845H40.628V58.8691H41.228V64.0845H39.4973Z" fill="#313131" fill-opacity="0.6"/>
<path d="M45.1507 63.4845C45.0123 63.4845 44.8738 63.4614 44.7353 63.4383C44.5738 63.3922 44.4353 63.346 44.2969 63.2537C44.1584 63.1614 44.02 63.0229 43.9507 62.8845C43.8353 62.6999 43.7892 62.4691 43.8123 62.2383C43.8123 62.0075 43.8584 61.7768 43.9507 61.5922C44.043 61.4306 44.1584 61.2691 44.3199 61.1537C44.4584 61.0383 44.62 60.9691 44.8046 60.9229C44.9661 60.8768 45.1507 60.8537 45.3353 60.8537H46.4892V62.9306C46.4661 63.0922 46.5123 63.2306 46.5815 63.3691C46.6507 63.4614 46.7892 63.4845 46.9969 63.4845H47.1815C47.32 63.4614 47.4584 63.5537 47.4815 63.7152C47.4815 63.7383 47.4815 63.7614 47.4815 63.7845C47.4815 63.8768 47.4584 63.9691 47.4123 64.0383C47.343 64.0845 47.2738 64.1075 47.1815 64.1075H46.9276C46.8123 64.1075 46.6969 64.1075 46.5584 64.0845C46.443 64.0614 46.3507 64.0152 46.2584 63.9691C46.1661 63.8999 46.0969 63.8306 46.0276 63.7383C45.9584 63.6229 45.9123 63.5075 45.9123 63.3691C45.7969 63.4152 45.6815 63.4383 45.543 63.4614C45.4046 63.4614 45.2661 63.4845 45.1507 63.4845ZM44.3892 62.1691C44.3892 62.3537 44.4584 62.5383 44.5738 62.6537C44.7584 62.7922 44.9661 62.8614 45.1969 62.8383C45.3123 62.8383 45.4276 62.8152 45.543 62.7922C45.6584 62.7691 45.7738 62.746 45.8661 62.6999V61.4075H45.22C45.0123 61.4075 44.8046 61.4537 44.62 61.5922C44.4584 61.7537 44.3661 61.9614 44.3892 62.1691ZM44.5507 59.4922C44.5507 59.2845 44.7353 59.0999 44.943 59.0999C45.1507 59.0999 45.3353 59.2845 45.3353 59.4922C45.3353 59.5845 45.2892 59.6999 45.22 59.7691C45.0584 59.9306 44.8276 59.9306 44.6661 59.7691C44.5969 59.6999 44.5507 59.5845 44.5507 59.4922ZM45.4969 59.4922C45.4969 59.2845 45.6584 59.0999 45.8892 59.0999C46.0969 59.0999 46.2815 59.2614 46.2815 59.4922C46.2815 59.7229 46.12 59.8845 45.8892 59.8845C45.7969 59.8845 45.6815 59.8383 45.6123 59.7691C45.543 59.6999 45.4969 59.5845 45.4969 59.4922Z" fill="#313131" fill-opacity="0.6"/>
<path d="M47.1593 64.0843C47.0208 64.1074 46.8823 64.0151 46.8593 63.8766C46.8593 63.8535 46.8593 63.8305 46.8593 63.8074C46.8593 63.7151 46.8823 63.6228 46.9285 63.5535C46.9977 63.5074 47.0669 63.4843 47.1593 63.4843H47.6439C47.7362 63.4843 47.8516 63.4843 47.9439 63.4612C48.0131 63.4612 48.0823 63.4381 48.1516 63.392C48.1977 63.3458 48.2439 63.2997 48.2669 63.2305C48.29 63.1381 48.3131 63.0458 48.3131 62.9535V61.292H48.9131V62.6997C48.9131 62.8151 48.9131 62.9305 48.9362 63.0228C48.9593 63.1151 48.9823 63.2074 49.0285 63.2766C49.0746 63.3458 49.1439 63.392 49.2362 63.4381C49.3285 63.4843 49.4439 63.5074 49.5593 63.5074C49.6977 63.4843 49.8362 63.5766 49.8593 63.7151C49.8593 63.7381 49.8593 63.7612 49.8593 63.7843C49.8593 63.8766 49.8362 63.9689 49.79 64.0381C49.7208 64.0843 49.6516 64.1074 49.5593 64.1074C49.3977 64.1074 49.2362 64.0612 49.0977 63.9689C48.9823 63.8766 48.9131 63.7612 48.867 63.6228C48.7977 63.8074 48.6362 63.9458 48.4516 64.0151C48.2208 64.0843 47.99 64.1074 47.7593 64.1074H47.1593V64.0843ZM47.7362 65.192C47.7362 65.0997 47.7823 64.9843 47.8516 64.9151C48.0131 64.7535 48.2439 64.7535 48.4054 64.9151C48.4746 64.9843 48.5208 65.0766 48.5208 65.192C48.5208 65.2843 48.4746 65.3997 48.4054 65.4689C48.2439 65.6305 48.0131 65.6305 47.8516 65.4689C47.7823 65.3997 47.7362 65.2843 47.7362 65.192ZM48.7054 65.192C48.7054 65.0997 48.7516 64.9843 48.8208 64.9151C48.89 64.8458 48.9823 64.7997 49.0977 64.7997C49.19 64.7997 49.3054 64.8458 49.3746 64.9151C49.4439 64.9843 49.49 65.0766 49.49 65.192C49.49 65.3997 49.3285 65.5843 49.0977 65.5843C49.0054 65.5843 48.89 65.5381 48.8208 65.4689C48.7285 65.3997 48.6823 65.2843 48.7054 65.192Z" fill="#313131" fill-opacity="0.6"/>
<path d="M49.5588 64.0849C49.4203 64.108 49.2819 64.0157 49.2588 63.8772C49.2588 63.8542 49.2588 63.8311 49.2588 63.808C49.2588 63.7157 49.2819 63.6234 49.328 63.5542C49.3973 63.508 49.4665 63.4849 49.5588 63.4849H50.6434C50.7819 63.4618 50.9203 63.5541 50.9434 63.6926C50.9434 63.7157 50.9434 63.7388 50.9434 63.7618C50.9434 63.8542 50.9203 63.9465 50.8742 64.0157C50.8049 64.0618 50.7357 64.0849 50.6434 64.0849H49.5588Z" fill="#313131" fill-opacity="0.6"/>
<path d="M50.643 64.0849C50.5046 64.108 50.3661 64.0157 50.343 63.8772C50.343 63.8542 50.343 63.8311 50.343 63.808C50.343 63.7157 50.3661 63.6234 50.4122 63.5542C50.4815 63.508 50.5507 63.4849 50.643 63.4849H51.7276C51.8661 63.4618 52.0046 63.5541 52.0276 63.6926C52.0276 63.7157 52.0276 63.7388 52.0276 63.7618C52.0276 63.8542 52.0046 63.9465 51.9584 64.0157C51.8892 64.0618 51.8199 64.0849 51.7276 64.0849H50.643Z" fill="#313131" fill-opacity="0.6"/>
<path d="M51.7287 64.085C51.5903 64.1081 51.4518 64.0158 51.4287 63.8773C51.4287 63.8542 51.4287 63.8311 51.4287 63.8081C51.4287 63.7157 51.4518 63.6234 51.4979 63.5542C51.5672 63.5081 51.6364 63.485 51.7287 63.485H52.8133C52.9518 63.4619 53.0903 63.5542 53.1133 63.6927C53.1133 63.7157 53.1133 63.7388 53.1133 63.7619C53.1133 63.8542 53.0903 63.9465 53.0441 64.0158C52.9749 64.0619 52.9056 64.085 52.8133 64.085H51.7287Z" fill="#313131" fill-opacity="0.6"/>
<path d="M52.8127 64.085C52.6742 64.1081 52.5358 64.0158 52.5127 63.8773C52.5127 63.8542 52.5127 63.8311 52.5127 63.8081C52.5127 63.7157 52.5358 63.6234 52.5819 63.5542C52.6512 63.5081 52.7204 63.485 52.8127 63.485H53.8973C54.0358 63.4619 54.1742 63.5542 54.1973 63.6927C54.1973 63.7157 54.1973 63.7388 54.1973 63.7619C54.1973 63.8542 54.1742 63.9465 54.1281 64.0158C54.0589 64.0619 53.9896 64.085 53.8973 64.085H52.8127Z" fill="#313131" fill-opacity="0.6"/>
<path d="M53.8744 64.0849C53.7359 64.1079 53.5975 64.0156 53.5744 63.8772C53.5744 63.8541 53.5744 63.831 53.5744 63.8079C53.5744 63.7156 53.5975 63.6233 53.6436 63.5541C53.7129 63.5079 53.7821 63.4849 53.8744 63.4849H54.959C55.0975 63.4618 55.2359 63.5541 55.259 63.6925C55.259 63.7156 55.259 63.7387 55.259 63.7618C55.259 63.8541 55.2359 63.9464 55.1898 64.0156C55.1206 64.0618 55.0513 64.0849 54.959 64.0849H53.8744Z" fill="#313131" fill-opacity="0.6"/>
<path d="M54.9582 64.085C54.8197 64.1081 54.6813 64.0158 54.6582 63.8773C54.6582 63.8542 54.6582 63.8311 54.6582 63.8081C54.6582 63.7157 54.6813 63.6234 54.7274 63.5542C54.7967 63.5081 54.8659 63.485 54.9582 63.485H56.0428C56.1813 63.4619 56.3197 63.5542 56.3428 63.6927C56.3428 63.7157 56.3428 63.7388 56.3428 63.7619C56.3428 63.8542 56.3197 63.9465 56.2736 64.0158C56.2044 64.0619 56.1351 64.085 56.0428 64.085H54.9582Z" fill="#313131" fill-opacity="0.6"/>
<path d="M56.0441 64.085C55.9057 64.1081 55.7672 64.0158 55.7441 63.8773C55.7441 63.8542 55.7441 63.8311 55.7441 63.8081C55.7441 63.7157 55.7672 63.6234 55.8134 63.5542C55.8826 63.5081 55.9518 63.485 56.0441 63.485H57.1288C57.2672 63.4619 57.4057 63.5542 57.4288 63.6927C57.4288 63.7157 57.4288 63.7388 57.4288 63.7619C57.4288 63.8542 57.4057 63.9465 57.3595 64.0158C57.2903 64.0619 57.2211 64.085 57.1288 64.085H56.0441Z" fill="#313131" fill-opacity="0.6"/>
<path d="M57.1281 64.0849C56.9896 64.108 56.8512 64.0157 56.8281 63.8772C56.8281 63.8542 56.8281 63.8311 56.8281 63.808C56.8281 63.7157 56.8512 63.6234 56.8973 63.5542C56.9666 63.508 57.0358 63.4849 57.1281 63.4849H58.2127C58.3512 63.4618 58.4896 63.5541 58.5127 63.6926C58.5127 63.7157 58.5127 63.7388 58.5127 63.7618C58.5127 63.8542 58.4896 63.9465 58.4435 64.0157C58.3742 64.0618 58.305 64.0849 58.2127 64.0849H57.1281Z" fill="#313131" fill-opacity="0.6"/>
<path d="M58.2123 64.0849C58.0739 64.108 57.9354 64.0157 57.9123 63.8772C57.9123 63.8541 57.9123 63.8311 57.9123 63.808C57.9123 63.7157 57.9354 63.6234 57.9816 63.5542C58.0508 63.508 58.12 63.4849 58.2123 63.4849H58.6969C58.7892 63.4849 58.9046 63.4849 58.9969 63.4618C59.0662 63.4618 59.1354 63.4388 59.2046 63.3926C59.2508 63.3465 59.2969 63.3003 59.32 63.2311C59.3431 63.1388 59.3662 63.0465 59.3662 62.9541V61.2926H59.9662V62.7003C59.9662 62.8157 59.9662 62.9311 59.9892 63.0234C60.0123 63.1157 60.0354 63.208 60.0816 63.2772C60.1277 63.3465 60.1969 63.3926 60.2892 63.4388C60.3816 63.4849 60.4969 63.508 60.6123 63.508C60.7508 63.4849 60.8892 63.5772 60.9123 63.7157C60.9123 63.7388 60.9123 63.7618 60.9123 63.7849C60.9123 63.8772 60.8892 63.9695 60.8431 64.0388C60.7739 64.0849 60.7046 64.108 60.6123 64.108C60.4508 64.108 60.2892 64.0618 60.1508 63.9695C60.0354 63.8772 59.9662 63.7618 59.92 63.6234C59.8508 63.808 59.6892 63.9465 59.5046 64.0157C59.2739 64.0849 59.0431 64.108 58.8123 64.108H58.2123V64.0849ZM59.2969 60.0465C59.2969 59.9541 59.3431 59.8388 59.4123 59.7695C59.5739 59.608 59.8046 59.608 59.9662 59.7695C60.0354 59.8388 60.0816 59.9311 60.0816 60.0465C60.0816 60.2541 59.8969 60.4388 59.6892 60.4388C59.4816 60.4388 59.2969 60.2541 59.2969 60.0465Z" fill="#313131" fill-opacity="0.6"/>
<path d="M60.5891 64.0845C60.4506 64.1076 60.3121 64.0153 60.2891 63.8768C60.2891 63.8538 60.2891 63.8307 60.2891 63.8076C60.2891 63.7153 60.3121 63.623 60.3583 63.5538C60.4275 63.5076 60.4968 63.4845 60.5891 63.4845H61.4198V58.8691H62.0198V62.4461C62.2506 62.0768 62.5275 61.7538 62.8968 61.4999C63.2429 61.2691 63.6583 61.1538 64.0506 61.1768C64.466 61.1538 64.8814 61.3153 65.1583 61.6153C65.4352 61.9614 65.5737 62.3999 65.5506 62.8384V64.0845H60.5891ZM64.9737 63.4845V62.9999C64.9737 62.8384 64.9506 62.6999 64.9275 62.5384C64.9045 62.3999 64.8352 62.2615 64.7429 62.1461C64.6506 62.0307 64.5352 61.9384 64.4198 61.8922C64.2583 61.823 64.0968 61.7999 63.9352 61.7999C63.7044 61.7999 63.4737 61.8461 63.2891 61.9614C63.0814 62.0768 62.8968 62.2153 62.7583 62.3768C62.5968 62.5384 62.4583 62.723 62.3429 62.9307C62.2275 63.1153 62.1352 63.323 62.066 63.5076L64.9737 63.4845Z" fill="#313131" fill-opacity="0.6"/>
<path d="M69.0822 64.0846C69.0822 64.3384 69.013 64.5922 68.8976 64.823C68.8053 65.0076 68.6438 65.1692 68.4592 65.2846C68.2515 65.3999 68.0438 65.4922 67.813 65.5384C67.5361 65.5845 67.2592 65.6076 66.9822 65.6076H66.6822V65.0076H66.913C67.1207 65.0076 67.3284 65.0076 67.5361 64.9845C67.6976 64.9615 67.8822 64.9153 68.0207 64.8461C68.1592 64.7769 68.2746 64.6846 68.3438 64.5692C68.4361 64.4307 68.4822 64.2692 68.4592 64.0846H67.6284C67.4438 64.0846 67.2592 64.0615 67.0746 64.0153C66.913 63.9692 66.7746 63.8999 66.6361 63.8076C66.4976 63.6922 66.4053 63.5769 66.3361 63.4153C66.2669 63.2307 66.2207 63.023 66.2207 62.8153C66.2207 62.6076 66.2438 62.423 66.313 62.2384C66.3822 62.0538 66.4746 61.8922 66.5899 61.7307C66.7284 61.5922 66.8669 61.4538 67.0515 61.3845C67.2361 61.2922 67.4438 61.2461 67.6515 61.2461C67.8822 61.2461 68.0899 61.2922 68.2976 61.3845C68.4822 61.4769 68.6207 61.6153 68.7361 61.7769C68.8515 61.9615 68.9207 62.1692 68.9669 62.3769C69.013 62.6307 69.0361 62.9076 69.0361 63.1615V63.5076H69.5438C69.6823 63.4846 69.8207 63.5769 69.8438 63.7153C69.8438 63.7384 69.8438 63.7615 69.8438 63.7846C69.8438 63.8769 69.8207 63.9692 69.7746 64.0384C69.7053 64.0845 69.6361 64.1076 69.5438 64.1076L69.0822 64.0846ZM66.8669 62.7461C66.8438 62.9538 66.9361 63.1615 67.0746 63.2999C67.2592 63.4384 67.4899 63.4846 67.6976 63.4846H68.4822V62.9999C68.5053 62.6999 68.4361 62.3999 68.2976 62.1461C68.1592 61.9153 67.9284 61.7999 67.6746 61.823C67.4207 61.823 67.1899 61.9384 67.0515 62.123C66.9822 62.2153 66.9361 62.3076 66.913 62.423C66.8899 62.5384 66.8669 62.6307 66.8669 62.7461Z" fill="#313131" fill-opacity="0.6"/>
<path d="M69.6127 64.0845C69.4742 64.1075 69.3358 64.0152 69.3127 63.8768C69.3127 63.8537 69.3127 63.8306 69.3127 63.8075C69.3127 63.7152 69.3358 63.6229 69.3819 63.5537C69.4511 63.5075 69.5204 63.4845 69.6127 63.4845H70.7665V58.8691H71.3665V64.0845H69.6127Z" fill="#313131" fill-opacity="0.6"/>
<path d="M72.9817 58.8693V64.0847H72.3817V58.8693H72.9817Z" fill="#313131" fill-opacity="0.6"/>
<path d="M76.8823 63.4847C76.7439 63.4847 76.6054 63.4616 76.4669 63.4386C76.3054 63.3924 76.1669 63.3462 76.0285 63.2539C75.89 63.1616 75.7515 63.0232 75.6823 62.8847C75.5669 62.7001 75.5208 62.4693 75.5439 62.2386C75.5439 62.0078 75.59 61.777 75.6823 61.5924C75.7746 61.4309 75.89 61.2693 76.0285 61.1539C76.1669 61.0386 76.3285 60.9693 76.5131 60.9232C76.6746 60.877 76.8592 60.8539 77.0439 60.8539H78.1977V62.9309C78.1746 63.0924 78.2208 63.2309 78.29 63.3693C78.3592 63.4616 78.4977 63.4847 78.7054 63.4847H78.89C79.0285 63.4616 79.1669 63.5539 79.19 63.7155C79.19 63.7386 79.19 63.7616 79.19 63.7847C79.19 63.877 79.1669 63.9693 79.1208 64.0386C79.0516 64.0847 78.9823 64.1078 78.89 64.1078H78.6362C78.5208 64.1078 78.3823 64.1078 78.2669 64.0847C78.1515 64.0616 78.0592 64.0155 77.9669 63.9693C77.8746 63.9001 77.8054 63.8309 77.7362 63.7386C77.6669 63.6232 77.6208 63.5078 77.6208 63.3693C77.5054 63.4155 77.39 63.4386 77.2515 63.4616C77.1362 63.4616 76.9977 63.4847 76.8823 63.4847ZM76.1208 62.1693C76.1208 62.3539 76.19 62.5386 76.3054 62.6539C76.49 62.7924 76.6977 62.8616 76.9285 62.8386C77.0439 62.8386 77.1592 62.8155 77.2746 62.7924C77.39 62.7693 77.5054 62.7463 77.5977 62.7001V61.4078H76.9515C76.7439 61.4078 76.5362 61.4539 76.3515 61.5924C76.19 61.7539 76.0977 61.9616 76.1208 62.1693ZM76.2823 59.4924C76.2823 59.2847 76.4669 59.1001 76.6746 59.1001C76.8823 59.1001 77.0669 59.2847 77.0669 59.4924C77.0669 59.5847 77.0208 59.7001 76.9515 59.7693C76.79 59.9309 76.5592 59.9309 76.3977 59.7693C76.3285 59.7001 76.2823 59.5847 76.2823 59.4924ZM77.2285 59.4924C77.2285 59.2847 77.39 59.1001 77.6208 59.1001C77.7131 59.1001 77.8285 59.1463 77.8977 59.2155C77.9669 59.2847 78.0131 59.377 78.0131 59.4924C78.0131 59.7001 77.8515 59.8847 77.6208 59.8847C77.5285 59.8847 77.4131 59.8386 77.3439 59.7693C77.2746 59.7001 77.2285 59.5847 77.2285 59.4924Z" fill="#313131" fill-opacity="0.6"/>
<path d="M78.8889 64.085C78.7504 64.1081 78.6119 64.0158 78.5889 63.8773C78.5889 63.8542 78.5889 63.8311 78.5889 63.8081C78.5889 63.7157 78.6119 63.6234 78.6581 63.5542C78.7273 63.5081 78.7966 63.485 78.8889 63.485H79.9735C80.1119 63.4619 80.2504 63.5542 80.2735 63.6927C80.2735 63.7157 80.2735 63.7388 80.2735 63.7619C80.2735 63.8542 80.2504 63.9465 80.2043 64.0158C80.135 64.0619 80.0658 64.085 79.9735 64.085H78.8889Z" fill="#313131" fill-opacity="0.6"/>
<path d="M79.9748 64.085C79.8363 64.1081 79.6979 64.0158 79.6748 63.8773C79.6748 63.8542 79.6748 63.8311 79.6748 63.8081C79.6748 63.7157 79.6979 63.6234 79.744 63.5542C79.8133 63.5081 79.8825 63.485 79.9748 63.485H81.0594C81.1979 63.4619 81.3363 63.5542 81.3594 63.6927C81.3594 63.7157 81.3594 63.7388 81.3594 63.7619C81.3594 63.8542 81.3363 63.9465 81.2902 64.0158C81.221 64.0619 81.1517 64.085 81.0594 64.085H79.9748Z" fill="#313131" fill-opacity="0.6"/>
<path d="M81.0587 64.0849C80.9202 64.1079 80.7818 64.0156 80.7587 63.8772C80.7587 63.8541 80.7587 63.831 80.7587 63.8079C80.7587 63.7156 80.7818 63.6233 80.8279 63.5541C80.8972 63.5079 80.9664 63.4849 81.0587 63.4849H82.1433C82.2818 63.4618 82.4202 63.5541 82.4433 63.6925C82.4433 63.7156 82.4433 63.7387 82.4433 63.7618C82.4433 63.8541 82.4202 63.9464 82.3741 64.0156C82.3049 64.0618 82.2356 64.0849 82.1433 64.0849H81.0587Z" fill="#313131" fill-opacity="0.6"/>
<path d="M82.1437 64.0849C82.0053 64.1079 81.8668 64.0156 81.8437 63.8772C81.8437 63.8541 81.8437 63.831 81.8437 63.8079C81.8437 63.7156 81.8668 63.6233 81.9129 63.5541C81.9822 63.5079 82.0514 63.4849 82.1437 63.4849H83.2283C83.3668 63.4618 83.5053 63.5541 83.5283 63.6925C83.5283 63.7156 83.5283 63.7387 83.5283 63.7618C83.5283 63.8541 83.5053 63.9464 83.4591 64.0156C83.3899 64.0618 83.3206 64.0849 83.2283 64.0849H82.1437Z" fill="#313131" fill-opacity="0.6"/>
<path d="M83.2278 64.0849C83.0893 64.1079 82.9509 64.0156 82.9278 63.8772C82.9278 63.8541 82.9278 63.831 82.9278 63.8079C82.9278 63.7156 82.9509 63.6233 82.997 63.5541C83.0663 63.5079 83.1355 63.4849 83.2278 63.4849H84.3124C84.4509 63.4618 84.5893 63.5541 84.6124 63.6925C84.6124 63.7156 84.6124 63.7387 84.6124 63.7618C84.6124 63.8541 84.5893 63.9464 84.5432 64.0156C84.474 64.0618 84.4047 64.0849 84.3124 64.0849H83.2278Z" fill="#313131" fill-opacity="0.6"/>
<path d="M84.3137 64.085C84.1752 64.1081 84.0367 64.0158 84.0137 63.8773C84.0137 63.8542 84.0137 63.8311 84.0137 63.8081C84.0137 63.7157 84.0368 63.6234 84.0829 63.5542C84.1521 63.5081 84.2214 63.485 84.3137 63.485H85.3983C85.5368 63.4619 85.6752 63.5542 85.6983 63.6927C85.6983 63.7157 85.6983 63.7388 85.6983 63.7619C85.6983 63.8542 85.6752 63.9465 85.6291 64.0158C85.5598 64.0619 85.4906 64.085 85.3983 64.085H84.3137Z" fill="#313131" fill-opacity="0.6"/>
<path d="M85.3742 64.0849C85.2358 64.108 85.0973 64.0157 85.0742 63.8772C85.0742 63.8542 85.0742 63.8311 85.0742 63.808C85.0742 63.7157 85.0973 63.6234 85.1434 63.5542C85.2127 63.508 85.2819 63.4849 85.3742 63.4849H86.4358C86.5742 63.4618 86.7127 63.5541 86.7358 63.6926C86.7358 63.7157 86.7358 63.7388 86.7358 63.7618C86.7358 63.8542 86.7127 63.9465 86.6665 64.0157C86.5973 64.0618 86.5281 64.0849 86.4358 64.0849H85.3742Z" fill="#313131" fill-opacity="0.6"/>
<path d="M86.4594 64.0849C86.3209 64.108 86.1825 64.0157 86.1594 63.8772C86.1594 63.8542 86.1594 63.8311 86.1594 63.808C86.1594 63.7157 86.1825 63.6234 86.2286 63.5542C86.2979 63.508 86.3671 63.4849 86.4594 63.4849H87.544C87.6825 63.4618 87.8209 63.5541 87.844 63.6926C87.844 63.7157 87.844 63.7388 87.844 63.7618C87.844 63.8542 87.8209 63.9465 87.7748 64.0157C87.7055 64.0618 87.6363 64.0849 87.544 64.0849H86.4594Z" fill="#313131" fill-opacity="0.6"/>
<path d="M87.5422 64.085C87.4037 64.1081 87.2653 64.0158 87.2422 63.8773C87.2422 63.8542 87.2422 63.8311 87.2422 63.8081C87.2422 63.7157 87.2653 63.6234 87.3114 63.5542C87.3807 63.5081 87.4499 63.485 87.5422 63.485H88.6268C88.7653 63.4619 88.9037 63.5542 88.9268 63.6927C88.9268 63.7157 88.9268 63.7388 88.9268 63.7619C88.9268 63.8542 88.9037 63.9465 88.8576 64.0158C88.7883 64.0619 88.7191 64.085 88.6268 64.085H87.5422Z" fill="#313131" fill-opacity="0.6"/>
<path d="M88.6281 64.0849C88.4896 64.1079 88.3511 64.0156 88.3281 63.8772C88.3281 63.8541 88.3281 63.831 88.3281 63.8079C88.3281 63.7156 88.3511 63.6233 88.3973 63.5541C88.4665 63.5079 88.5358 63.4849 88.6281 63.4849H89.7127C89.8511 63.4618 89.9896 63.5541 90.0127 63.6925C90.0127 63.7156 90.0127 63.7387 90.0127 63.7618C90.0127 63.8541 89.9896 63.9464 89.9435 64.0156C89.8742 64.0618 89.805 64.0849 89.7127 64.0849H88.6281Z" fill="#313131" fill-opacity="0.6"/>
<path d="M89.7131 64.0849C89.5746 64.1079 89.4362 64.0156 89.4131 63.8772C89.4131 63.8541 89.4131 63.831 89.4131 63.8079C89.4131 63.7156 89.4362 63.6233 89.4823 63.5541C89.5516 63.5079 89.6208 63.4849 89.7131 63.4849H90.7977C90.9362 63.4618 91.0746 63.5541 91.0977 63.6925C91.0977 63.7156 91.0977 63.7387 91.0977 63.7618C91.0977 63.8541 91.0746 63.9464 91.0285 64.0156C90.9592 64.0618 90.89 64.0849 90.7977 64.0849H89.7131Z" fill="#313131" fill-opacity="0.6"/>
<path d="M90.7972 64.0849C90.6587 64.1079 90.5203 64.0156 90.4972 63.8772C90.4972 63.8541 90.4972 63.831 90.4972 63.8079C90.4972 63.7156 90.5203 63.6233 90.5664 63.5541C90.6357 63.5079 90.7049 63.4849 90.7972 63.4849H91.8818C92.0203 63.4618 92.1587 63.5541 92.1818 63.6925C92.1818 63.7156 92.1818 63.7387 92.1818 63.7618C92.1818 63.8541 92.1587 63.9464 92.1126 64.0156C92.0433 64.0618 91.9741 64.0849 91.8818 64.0849H90.7972Z" fill="#313131" fill-opacity="0.6"/>
<path d="M91.8586 64.085C91.7201 64.1081 91.5817 64.0158 91.5586 63.8773C91.5586 63.8542 91.5586 63.8311 91.5586 63.8081C91.5586 63.7157 91.5817 63.6234 91.6278 63.5542C91.6971 63.5081 91.7663 63.485 91.8586 63.485H92.9432C93.0817 63.4619 93.2201 63.5542 93.2432 63.6927C93.2432 63.7157 93.2432 63.7388 93.2432 63.7619C93.2432 63.8542 93.2201 63.9465 93.174 64.0158C93.1047 64.0619 93.0355 64.085 92.9432 64.085H91.8586Z" fill="#313131" fill-opacity="0.6"/>
<path d="M95.4603 64.0852C95.3449 64.0852 95.2064 64.0852 95.091 64.039C94.9987 64.0159 94.9295 63.9698 94.8603 63.9236C94.791 63.8775 94.7449 63.8313 94.7218 63.7621C94.6757 63.7159 94.6526 63.6467 94.6295 63.5775C94.5834 63.6698 94.5372 63.7621 94.4449 63.8313C94.3526 63.9005 94.2603 63.9467 94.168 63.9698C94.0295 64.0159 93.891 64.039 93.7526 64.039C93.591 64.0621 93.4064 64.0621 93.1987 64.0621H92.968C92.8295 64.0852 92.691 63.9929 92.668 63.8544C92.668 63.8313 92.668 63.8082 92.668 63.7852C92.668 63.6929 92.691 63.6005 92.7372 63.5313C92.8064 63.4852 92.8757 63.4621 92.968 63.4621H93.2218C93.3603 63.4621 93.4987 63.4621 93.6372 63.439C93.7295 63.439 93.8218 63.4159 93.9141 63.3698C93.9834 63.3236 94.0295 63.2775 94.0526 63.2082C94.0757 63.1159 94.0987 63.0236 94.0987 62.9313V61.6159H94.6987V62.6544C94.6987 62.7698 94.6987 62.8852 94.7218 62.9775C94.7218 63.0698 94.7449 63.1621 94.7911 63.2313C94.8372 63.3005 94.8834 63.3467 94.9526 63.3929C95.0449 63.439 95.1372 63.4621 95.2295 63.4621C95.3218 63.1852 95.4603 62.9082 95.6218 62.6544C95.7834 62.3775 95.9911 62.1236 96.1987 61.9159C96.4295 61.7082 96.6834 61.5236 96.9603 61.3852C97.2603 61.2467 97.5603 61.1775 97.8834 61.1775C98.2987 61.1544 98.7141 61.3159 99.0372 61.6159C99.3372 61.9621 99.4757 62.4005 99.4526 62.8621V63.4852H100.006C100.145 63.4621 100.283 63.5544 100.306 63.6929C100.306 63.7159 100.306 63.739 100.306 63.7621C100.306 63.8544 100.283 63.9467 100.237 64.0159C100.168 64.0621 100.099 64.0852 100.006 64.0852H95.4603ZM98.8064 63.4852V63.0005C98.8064 62.839 98.7834 62.6775 98.7603 62.5159C98.7372 62.3775 98.668 62.239 98.5757 62.1236C98.4834 62.0082 98.368 61.939 98.2526 61.8698C98.0911 61.8005 97.9295 61.7775 97.768 61.7775C97.5372 61.7775 97.3064 61.8236 97.1218 61.939C96.9141 62.0313 96.7295 62.1698 96.568 62.3313C96.4064 62.4929 96.2449 62.6775 96.1295 62.8852C96.0141 63.0698 95.9218 63.2775 95.8295 63.4852H98.8064Z" fill="#313131" fill-opacity="0.6"/>
<path d="M99.9582 64.0851C99.8197 64.1081 99.6813 64.0158 99.6582 63.8774C99.6582 63.8543 99.6582 63.8312 99.6582 63.8081C99.6582 63.7158 99.6813 63.6235 99.7274 63.5543C99.7967 63.5081 99.8659 63.4851 99.9582 63.4851H100.443C100.535 63.4851 100.651 63.4851 100.743 63.462C100.812 63.462 100.881 63.4389 100.951 63.3928C100.997 63.3466 101.043 63.3004 101.066 63.2312C101.089 63.1389 101.112 63.0466 101.112 62.9543V61.2928H101.712V62.7005C101.712 62.8158 101.712 62.9312 101.735 63.0235C101.758 63.1158 101.781 63.2081 101.827 63.2774C101.874 63.3466 101.943 63.3928 102.035 63.4389C102.127 63.4851 102.243 63.5081 102.358 63.5081C102.497 63.4851 102.635 63.5774 102.658 63.7158C102.658 63.7389 102.658 63.762 102.658 63.7851C102.658 63.8774 102.635 63.9697 102.589 64.0389C102.52 64.0851 102.451 64.1081 102.358 64.1081C102.197 64.1081 102.035 64.062 101.897 63.9697C101.781 63.8774 101.712 63.762 101.666 63.6235C101.597 63.8081 101.435 63.9466 101.251 64.0158C101.02 64.0851 100.789 64.1081 100.558 64.1081H99.9582V64.0851ZM101.043 60.0466C101.043 59.9543 101.089 59.8389 101.158 59.7697C101.227 59.7005 101.32 59.6543 101.435 59.6543C101.643 59.6543 101.827 59.8158 101.827 60.0466C101.827 60.1389 101.781 60.2543 101.712 60.3235C101.643 60.3928 101.551 60.4389 101.435 60.4389C101.227 60.4389 101.043 60.2543 101.043 60.0466Z" fill="#313131" fill-opacity="0.6"/>
<path d="M106.836 64.0845C106.675 64.0845 106.513 64.0615 106.351 63.9691C106.213 63.8768 106.098 63.7615 106.028 63.5999V63.5768C105.936 63.7615 105.798 63.8999 105.613 64.0153C105.405 64.1307 105.175 64.1768 104.944 64.1768C104.713 64.1768 104.482 64.1307 104.251 64.0615C103.998 63.9691 103.744 63.8307 103.536 63.6691C103.49 63.7615 103.421 63.8307 103.351 63.8999C103.282 63.9461 103.213 63.9922 103.144 64.0153C103.075 64.0384 102.982 64.0615 102.913 64.0615C102.821 64.0615 102.751 64.0845 102.659 64.0615H102.336C102.198 64.0845 102.059 63.9922 102.036 63.8538C102.036 63.8307 102.036 63.8076 102.036 63.7845C102.036 63.6922 102.059 63.5999 102.105 63.5307C102.175 63.4845 102.244 63.4615 102.336 63.4615H102.636C102.705 63.4615 102.751 63.4615 102.821 63.4384C102.89 63.4153 102.959 63.3922 103.005 63.3461C103.075 63.2999 103.144 63.2307 103.19 63.1384C103.259 63.023 103.328 62.9076 103.375 62.7922C103.467 62.5384 103.582 62.2845 103.721 62.0307C103.813 61.8691 103.951 61.7076 104.09 61.5922C104.205 61.4999 104.344 61.4307 104.482 61.3845C104.621 61.3615 104.736 61.3384 104.875 61.3384C105.059 61.3384 105.221 61.3615 105.382 61.4538C105.544 61.523 105.682 61.6153 105.798 61.7538C105.913 61.8922 106.005 62.0538 106.075 62.2153C106.144 62.3999 106.167 62.6076 106.167 62.8153C106.167 62.8384 106.167 62.8845 106.167 62.9076C106.167 62.9307 106.167 62.9768 106.167 62.9999C106.213 63.1384 106.282 63.2538 106.375 63.3461C106.513 63.4384 106.651 63.4845 106.813 63.4615C106.951 63.4384 107.09 63.5307 107.113 63.6691C107.113 63.6922 107.113 63.7153 107.113 63.7384C107.113 63.8307 107.09 63.923 107.044 63.9922C106.998 64.0845 106.905 64.0845 106.836 64.0845ZM105.59 62.7922C105.59 62.6768 105.567 62.5845 105.544 62.4691C105.521 62.3768 105.475 62.2845 105.405 62.1922C105.336 62.123 105.267 62.0538 105.175 62.0076C105.082 61.9615 104.967 61.9384 104.875 61.9384C104.667 61.9384 104.459 62.0538 104.321 62.2153C104.09 62.4922 103.928 62.8153 103.836 63.1615C103.998 63.2768 104.182 63.3691 104.367 63.4384C104.551 63.5076 104.736 63.5307 104.921 63.5538C105.105 63.5538 105.267 63.5076 105.405 63.3691C105.521 63.2307 105.613 62.9999 105.59 62.7922Z" fill="#313131" fill-opacity="0.6"/>
<path d="M106.836 64.0845C106.698 64.1076 106.559 64.0153 106.536 63.8768C106.536 63.8538 106.536 63.8307 106.536 63.8076C106.536 63.7153 106.559 63.623 106.605 63.5538C106.675 63.5076 106.744 63.4845 106.836 63.4845H107.967V58.8691H108.567V64.0845H106.836Z" fill="#313131" fill-opacity="0.6"/>
<path d="M110.205 58.8691V64.0845H109.605V58.8691H110.205Z" fill="#313131" fill-opacity="0.6"/>
<path d="M0.265625 68.3774H0.98101L3.68101 72.5313H3.70409V68.3774H4.35024V73.4774H3.61178L0.934856 69.3928H0.91178V73.5005H0.265625V68.3774Z" fill="#313131" fill-opacity="0.6"/>
<path d="M9.3369 73.4765C9.19844 73.5457 9.05998 73.5919 8.89844 73.5688C8.75998 73.5688 8.62152 73.5227 8.52921 73.4304C8.41382 73.315 8.36767 73.1534 8.39075 72.9919C8.22921 73.1765 8.04459 73.3381 7.81382 73.4304C7.58305 73.5227 7.35228 73.5688 7.09844 73.5688C6.9369 73.5688 6.77536 73.5457 6.6369 73.5227C6.49844 73.4996 6.35998 73.4304 6.24459 73.3381C6.12921 73.2457 6.0369 73.1534 5.99075 73.015C5.92151 72.8765 5.89844 72.6919 5.89844 72.5304C5.89844 72.3457 5.92151 72.1842 6.01382 72.0227C6.08305 71.8842 6.17536 71.7919 6.29075 71.6996C6.40613 71.6073 6.54459 71.5611 6.68305 71.515C6.82152 71.4688 6.98305 71.4227 7.14459 71.3996C7.30613 71.3765 7.46767 71.3534 7.62921 71.3304C7.76767 71.3073 7.90613 71.2842 8.02152 71.2611C8.11382 71.2381 8.20613 71.1919 8.29844 71.1227C8.36767 71.0534 8.41382 70.9611 8.39075 70.8688C8.39075 70.7534 8.36767 70.6381 8.32152 70.5457C8.27536 70.4765 8.20613 70.4073 8.1369 70.3611C8.04459 70.315 7.97536 70.2919 7.88305 70.2688C7.79075 70.2457 7.69844 70.2457 7.58305 70.2457C7.35229 70.2457 7.14459 70.2919 6.9369 70.3842C6.75228 70.4996 6.6369 70.7304 6.65998 70.9381H6.05998C6.05998 70.7304 6.10613 70.5457 6.19844 70.3611C6.29075 70.1996 6.40613 70.0842 6.54459 69.9688C6.70613 69.8765 6.86767 69.8073 7.02921 69.7611C7.21382 69.715 7.42152 69.6919 7.62921 69.6919C7.79075 69.6919 7.95229 69.715 8.1369 69.7381C8.29844 69.7611 8.4369 69.8073 8.57536 69.8765C8.71382 69.9457 8.82921 70.0611 8.89844 70.1996C8.99075 70.3611 9.0369 70.5457 9.01383 70.7304V72.6227C9.01383 72.7381 9.01382 72.8304 9.0369 72.9457C9.05998 73.015 9.10613 73.038 9.19844 73.038C9.26767 73.038 9.3369 73.015 9.38306 72.9919L9.3369 73.4765ZM8.34459 71.5842C8.27536 71.6304 8.20613 71.6534 8.1369 71.6765C8.04459 71.6996 7.95229 71.7227 7.85998 71.7457C7.76767 71.7688 7.65228 71.7688 7.55998 71.7919C7.46767 71.815 7.35228 71.815 7.25998 71.8381C7.16767 71.8611 7.07536 71.8842 6.98305 71.9073C6.89075 71.9304 6.82152 71.9765 6.75228 72.0227C6.68305 72.0688 6.6369 72.1381 6.59075 72.2073C6.54459 72.2996 6.52152 72.3919 6.52152 72.4842C6.52152 72.5765 6.54459 72.6688 6.59075 72.7381C6.6369 72.8073 6.68305 72.8534 6.75228 72.8996C6.82152 72.9457 6.89075 72.9688 6.98305 72.9919C7.07536 73.015 7.16767 73.015 7.25998 73.015C7.44459 73.015 7.60613 72.9919 7.76767 72.9227C7.90613 72.8765 8.02152 72.8073 8.11382 72.715C8.20613 72.6457 8.27536 72.5534 8.32152 72.4381C8.36767 72.3457 8.39075 72.2534 8.39075 72.1611L8.34459 71.5842Z" fill="#313131" fill-opacity="0.6"/>
<path d="M11.4591 69.7849H12.1975V70.3156H11.4591V72.6233C11.4591 72.6695 11.4591 72.7387 11.4822 72.7849C11.4822 72.831 11.5052 72.8541 11.5514 72.8772C11.5975 72.9003 11.6437 72.9233 11.6898 72.9233C11.7591 72.9233 11.8514 72.9464 11.9206 72.9233H12.1975V73.4541H11.736C11.5975 73.4541 11.4591 73.4541 11.3206 73.431C11.2283 73.408 11.136 73.3849 11.0437 73.3156C10.9745 73.2464 10.9283 73.1772 10.8822 73.0849C10.836 72.9464 10.836 72.808 10.836 72.6695V70.3156H10.2129V69.7849H10.836V68.6772H11.4591V69.7849Z" fill="#313131" fill-opacity="0.6"/>
<path d="M14.2281 69.139H13.6281V68.4006H14.2281V69.139ZM13.6281 69.7852H14.2281V73.4775H13.6281V69.7852Z" fill="#313131" fill-opacity="0.6"/>
<path d="M15.6824 71.6543C15.6824 71.4005 15.7286 71.1466 15.7978 70.8928C15.867 70.662 15.9824 70.4543 16.144 70.2697C16.3055 70.0851 16.4901 69.9466 16.6978 69.8543C17.2055 69.6466 17.7594 69.6466 18.244 69.8543C18.4517 69.9466 18.6594 70.0851 18.7978 70.2697C18.9594 70.4543 19.0747 70.662 19.144 70.8928C19.2132 71.1466 19.2594 71.4005 19.2594 71.6543C19.2594 71.9082 19.2132 72.162 19.144 72.4159C19.0747 72.6466 18.9594 72.8543 18.7978 73.0159C18.6363 73.2005 18.4517 73.3389 18.244 73.4312C17.7363 73.6389 17.1824 73.6389 16.6978 73.4312C16.4901 73.3389 16.2824 73.2005 16.144 73.0159C15.9824 72.8312 15.867 72.6235 15.7978 72.4159C15.7286 72.162 15.6824 71.9082 15.6824 71.6543ZM16.3517 71.6543C16.3517 71.862 16.3747 72.0697 16.444 72.2543C16.4901 72.4159 16.5824 72.5543 16.6978 72.6928C16.7901 72.8082 16.9286 72.9005 17.0671 72.9697C17.344 73.0851 17.6671 73.0851 17.9671 72.9697C18.1055 72.9005 18.244 72.8082 18.3363 72.6928C18.4517 72.5543 18.5209 72.4159 18.5901 72.2543C18.7055 71.862 18.7055 71.4466 18.5901 71.0543C18.544 70.8928 18.4517 70.7543 18.3363 70.6159C18.244 70.5005 18.1055 70.4082 17.9671 70.3389C17.6901 70.2235 17.3671 70.2235 17.0671 70.3389C16.9286 70.4082 16.7901 70.5005 16.6978 70.6159C16.5824 70.7543 16.5132 70.8928 16.444 71.0543C16.3747 71.2389 16.3286 71.4466 16.3517 71.6543Z" fill="#313131" fill-opacity="0.6"/>
<path d="M20.7119 69.7846H21.2888V70.3615H21.3119C21.4272 70.1538 21.5888 69.9692 21.8195 69.8538C22.0272 69.7384 22.2811 69.6923 22.5349 69.6923C22.7426 69.6923 22.9503 69.7153 23.1349 69.7846C23.2965 69.8538 23.4119 69.9461 23.5272 70.0615C23.6195 70.1769 23.7119 70.3384 23.7349 70.4769C23.7811 70.6615 23.8042 70.8461 23.8042 71.0307V73.4538H23.2042V70.9384C23.2042 70.7307 23.1349 70.5461 22.9965 70.3846C22.858 70.2461 22.6503 70.1769 22.4426 70.1769C22.2811 70.1769 22.1195 70.2 21.958 70.2692C21.8426 70.3153 21.7272 70.4076 21.6349 70.5C21.5426 70.6153 21.4734 70.7307 21.4272 70.8692C21.3811 71.0076 21.358 71.1692 21.358 71.3307V73.4307H20.7349V69.7846H20.7119Z" fill="#313131" fill-opacity="0.6"/>
<path d="M28.698 73.4769C28.5595 73.5461 28.421 73.5923 28.2595 73.5692C28.121 73.5692 27.9826 73.523 27.8903 73.4307C27.7749 73.3153 27.7287 73.1538 27.7518 72.9923C27.5903 73.1769 27.4057 73.3384 27.1749 73.4307C26.9441 73.523 26.7133 73.5692 26.4595 73.5692C26.298 73.5692 26.1364 73.5461 25.9749 73.523C25.8364 73.5 25.698 73.4307 25.5826 73.3384C25.4672 73.2461 25.3749 73.1538 25.3287 73.0153C25.2595 72.8769 25.2364 72.6923 25.2364 72.5307C25.2364 72.3461 25.2595 72.1846 25.3518 72.023C25.421 71.8846 25.5133 71.7923 25.6287 71.7C25.7441 71.6076 25.8826 71.5615 26.021 71.5153C26.1826 71.4692 26.321 71.423 26.4826 71.4C26.6441 71.3769 26.8057 71.3538 26.9672 71.3307C27.1057 71.3076 27.2441 71.2846 27.3595 71.2615C27.4518 71.2384 27.5441 71.1923 27.6364 71.123C27.7057 71.0538 27.7518 70.9615 27.7287 70.8692C27.7287 70.7538 27.7057 70.6384 27.6595 70.5461C27.6133 70.4769 27.5441 70.4077 27.4749 70.3615C27.3826 70.3153 27.3133 70.2923 27.198 70.2692C27.1057 70.2461 27.0133 70.2461 26.898 70.2461C26.6672 70.2461 26.4595 70.2923 26.2518 70.3846C26.0672 70.5 25.9518 70.7077 25.9749 70.9384H25.3749C25.3749 70.7307 25.421 70.5461 25.5133 70.3615C25.6057 70.2 25.721 70.0846 25.8595 69.9692C26.021 69.8769 26.1826 69.8076 26.3441 69.7615C26.5287 69.7153 26.7364 69.6923 26.9441 69.6923C27.1057 69.6923 27.2672 69.7153 27.4518 69.7384C27.6133 69.7615 27.7518 69.8076 27.8903 69.8769C28.0287 69.9461 28.1441 70.0615 28.2133 70.2C28.3057 70.3615 28.3518 70.5461 28.3287 70.7307V72.623C28.3287 72.7384 28.3287 72.8307 28.3518 72.9461C28.3749 73.0153 28.421 73.0384 28.5133 73.0384C28.5826 73.0384 28.6518 73.0153 28.698 72.9923V73.4769ZM27.7057 71.5846C27.6364 71.6307 27.5672 71.6538 27.498 71.6769C27.4057 71.7 27.3133 71.723 27.221 71.7461C27.1287 71.7692 27.0364 71.7692 26.921 71.7923C26.8057 71.8153 26.7133 71.8153 26.621 71.8384C26.5287 71.8615 26.4364 71.8846 26.3441 71.9076C26.2518 71.9307 26.1826 71.9769 26.1133 72.023C26.0441 72.0692 25.998 72.1384 25.9518 72.2077C25.9057 72.3 25.8826 72.3923 25.8826 72.4846C25.8826 72.5769 25.9057 72.6692 25.9518 72.7384C25.998 72.8076 26.0441 72.8538 26.1133 72.9C26.1826 72.9461 26.2518 72.9692 26.3441 72.9923C26.4364 73.0153 26.5287 73.0153 26.621 73.0153C26.8057 73.0153 26.9672 72.9923 27.1287 72.923C27.2672 72.8769 27.3826 72.8076 27.4749 72.7153C27.5672 72.6461 27.6364 72.5538 27.6826 72.4384C27.7287 72.3461 27.7518 72.2538 27.7518 72.1615L27.7057 71.5846Z" fill="#313131" fill-opacity="0.6"/>
<path d="M30.0125 68.3773H30.6125V73.4773H30.0125V68.3773Z" fill="#313131" fill-opacity="0.6"/>
<path d="M36.4745 68.3774H37.236L39.2206 73.4774H38.4591L37.9053 71.9313H35.736L35.1591 73.4774H34.4668L36.4745 68.3774ZM35.9668 71.3774H37.6976L36.8437 69.0005L35.9668 71.3774Z" fill="#313131" fill-opacity="0.6"/>
<path d="M43.3974 73.5H42.8435V72.9231H42.8204C42.705 73.1308 42.5435 73.3154 42.3127 73.4308C42.105 73.5462 41.8512 73.5924 41.5974 73.5924C41.3897 73.5924 41.182 73.5693 40.9974 73.5C40.8358 73.4308 40.7204 73.3385 40.605 73.2231C40.5127 73.1077 40.4204 72.9462 40.3974 72.7847C40.3512 72.6001 40.3281 72.4154 40.3281 72.2308V69.8077H40.9281V72.3231C40.905 72.7154 41.182 73.0385 41.5512 73.0616C41.5974 73.0616 41.6204 73.0616 41.6666 73.0616C41.8281 73.0616 41.9897 73.0385 42.1512 72.9693C42.2897 72.9231 42.405 72.8308 42.4974 72.7154C42.5897 72.6 42.6589 72.4847 42.705 72.3462C42.7512 72.2077 42.7743 72.0462 42.7743 71.8847V69.7847H43.3743L43.3974 73.5Z" fill="#313131" fill-opacity="0.6"/>
<path d="M47.5515 70.9844C47.4823 70.5229 47.09 70.1998 46.6284 70.246C46.4438 70.246 46.2361 70.2921 46.0746 70.3614C45.9361 70.4306 45.8208 70.546 45.7284 70.6845C45.6361 70.8229 45.5669 70.9845 45.5438 71.146C45.4977 71.3306 45.4977 71.5152 45.4977 71.6768C45.4977 71.8383 45.5208 72.0229 45.5669 72.1844C45.6131 72.346 45.6592 72.4844 45.7515 72.6229C45.8438 72.7383 45.9592 72.8537 46.0746 72.9229C46.2361 72.9921 46.3977 73.0383 46.5823 73.0383C46.8361 73.0614 47.09 72.9691 47.2746 72.8075C47.4592 72.6229 47.5746 72.3921 47.5977 72.1383H48.2208C48.1746 72.5306 48.0131 72.8998 47.7361 73.1768C47.4361 73.4306 47.0208 73.5691 46.6284 73.546C46.3746 73.546 46.1208 73.4998 45.89 73.4075C45.6823 73.3152 45.4977 73.1768 45.3361 73.0152C45.1977 72.8306 45.0823 72.646 45.0131 72.4152C44.9438 72.1614 44.8977 71.9075 44.8977 71.6537C44.8977 71.3998 44.9438 71.1229 45.0131 70.8691C45.0823 70.6383 45.1977 70.4306 45.3361 70.246C45.4746 70.0614 45.6592 69.9229 45.89 69.8306C46.1208 69.7152 46.3977 69.6691 46.6515 69.6691C46.8592 69.6691 47.0438 69.6921 47.2515 69.7383C47.4361 69.7844 47.5977 69.8537 47.7361 69.9691C47.8746 70.0844 47.99 70.1998 48.0823 70.3614C48.1746 70.546 48.2438 70.7306 48.2438 70.9383H47.5515V70.9844Z" fill="#313131" fill-opacity="0.6"/>
<path d="M50.4354 69.7847H51.1739V70.3155H50.4354V72.6232C50.4354 72.6693 50.4354 72.7385 50.4585 72.7847C50.4585 72.8309 50.5047 72.8539 50.5277 72.877C50.5739 72.9001 50.62 72.9232 50.6662 72.9232C50.7354 72.9232 50.8277 72.9462 50.897 72.9232H51.1739V73.4539H50.7123C50.5739 73.4539 50.4354 73.4539 50.297 73.4308C50.2047 73.4078 50.1123 73.3847 50.02 73.3155C49.9508 73.2462 49.9047 73.177 49.8585 73.0847C49.8123 72.9462 49.8123 72.8078 49.8123 72.6693V70.3155H49.1893V69.7847H49.8123V68.677H50.4123L50.4354 69.7847Z" fill="#313131" fill-opacity="0.6"/>
<path d="M53.2043 69.139H52.6043V68.4006H53.2043V69.139ZM52.6043 69.7852H53.2043V73.4775H52.6043V69.7852Z" fill="#313131" fill-opacity="0.6"/>
<path d="M54.6828 71.6543C54.6828 71.4005 54.729 71.1466 54.7982 70.8928C54.8674 70.662 54.9828 70.4543 55.1444 70.2697C55.3059 70.0851 55.4905 69.9466 55.6982 69.8543C56.2059 69.6466 56.7598 69.6466 57.2444 69.8543C57.4521 69.9466 57.6598 70.0851 57.7982 70.2697C57.9598 70.4543 58.0751 70.662 58.1444 70.8928C58.2136 71.1466 58.2598 71.4005 58.2598 71.6543C58.2598 71.9082 58.2136 72.162 58.1444 72.4159C58.0751 72.6466 57.9598 72.8543 57.7982 73.0159C57.6367 73.2005 57.4521 73.3389 57.2444 73.4312C56.7367 73.6389 56.1828 73.6389 55.6982 73.4312C55.4905 73.3389 55.2828 73.2005 55.1444 73.0159C54.9828 72.8312 54.8674 72.6235 54.7982 72.4159C54.7059 72.162 54.6828 71.9082 54.6828 71.6543ZM55.329 71.6543C55.329 71.862 55.3521 72.0697 55.4213 72.2543C55.4674 72.4159 55.5598 72.5543 55.6751 72.6928C55.7674 72.8082 55.9059 72.9005 56.0444 72.9697C56.3213 73.0851 56.6444 73.0851 56.9444 72.9697C57.0828 72.9005 57.2213 72.8082 57.3136 72.6928C57.429 72.5543 57.4982 72.4159 57.5674 72.2543C57.6828 71.862 57.6828 71.4466 57.5674 71.0543C57.5213 70.8928 57.429 70.7543 57.3136 70.6159C57.2213 70.5005 57.0828 70.4082 56.9444 70.3389C56.6674 70.2235 56.3444 70.2235 56.0444 70.3389C55.9059 70.4082 55.7674 70.5005 55.6751 70.6159C55.5598 70.7543 55.4905 70.8928 55.4213 71.0543C55.3521 71.2389 55.3059 71.4466 55.329 71.6543Z" fill="#313131" fill-opacity="0.6"/>
<path d="M59.6895 69.7842H60.2664V70.3611H60.2895C60.4048 70.1534 60.5664 69.9688 60.7741 69.8534C60.9818 69.7381 61.2356 69.6919 61.4895 69.6919C61.6971 69.6919 61.9048 69.715 62.0895 69.7842C62.251 69.8534 62.3664 69.9457 62.4818 70.0611C62.5741 70.1765 62.6664 70.3381 62.6895 70.4765C62.7356 70.6611 62.7587 70.8457 62.7587 71.0304V73.4534H62.1587V70.9381C62.1818 70.5457 61.9048 70.2227 61.5125 70.1996C61.4664 70.1996 61.4433 70.1996 61.3971 70.1996C61.2356 70.1996 61.0741 70.2227 60.9125 70.2919C60.7741 70.338 60.6587 70.4304 60.5664 70.5227C60.4741 70.638 60.4048 70.7534 60.3587 70.8919C60.3125 71.0304 60.2895 71.1919 60.2895 71.3534V73.4534H59.6895V69.7842Z" fill="#313131" fill-opacity="0.6"/>
<path d="M65.044 69.1388H64.444V68.4004H65.044V69.1388ZM64.4209 69.785H65.0209V73.4773H64.4209V69.785Z" fill="#313131" fill-opacity="0.6"/>
<path d="M66.7047 69.7842H67.2816V70.3611H67.3047C67.4201 70.1534 67.5816 69.9688 67.7893 69.8534C67.997 69.7381 68.2509 69.6919 68.5047 69.6919C68.7124 69.6919 68.9201 69.715 69.1047 69.7842C69.2663 69.8534 69.3816 69.9457 69.497 70.0611C69.5893 70.1765 69.6816 70.3381 69.7047 70.4765C69.7509 70.6611 69.774 70.8457 69.774 71.0304V73.4534H69.1509V70.9381C69.1509 70.7304 69.0816 70.5457 68.9432 70.3842C68.8047 70.2457 68.597 70.1765 68.3893 70.1765C68.2278 70.1765 68.0663 70.1996 67.9047 70.2688C67.7663 70.315 67.6509 70.4073 67.5586 70.4996C67.4663 70.615 67.397 70.7304 67.3509 70.8688C67.3047 71.0073 67.2816 71.1688 67.2816 71.3304V73.4304H66.6816L66.7047 69.7842Z" fill="#313131" fill-opacity="0.6"/>
<path d="M74.598 73.1769C74.598 73.7769 74.4595 74.2384 74.1826 74.5384C73.9057 74.8384 73.4672 74.9999 72.8903 74.9999C72.7057 74.9999 72.5442 74.9769 72.3595 74.9538C72.198 74.9076 72.0134 74.8615 71.8749 74.7692C71.7365 74.6769 71.598 74.5615 71.5057 74.423C71.4134 74.2615 71.3442 74.0999 71.3442 73.9153H71.9442C71.9442 74.0076 71.9903 74.123 72.0595 74.1923C72.1288 74.2615 72.198 74.3307 72.2903 74.3769C72.3826 74.423 72.498 74.4692 72.5903 74.4923C72.7057 74.5153 72.798 74.5153 72.9134 74.5153C73.098 74.5153 73.2595 74.4923 73.4211 74.3999C73.5595 74.3307 73.6749 74.2384 73.7672 74.123C73.8595 73.9846 73.9288 73.8461 73.9749 73.6846C74.0211 73.4999 74.0442 73.3153 74.0442 73.1076V72.8538H73.998C73.9519 72.9692 73.8826 73.0615 73.7903 73.1538C73.698 73.2461 73.6057 73.3153 73.5134 73.3615C73.398 73.4076 73.3057 73.4538 73.1903 73.4769C73.0749 73.4999 72.9595 73.523 72.8442 73.523C72.5903 73.523 72.3595 73.4769 72.1288 73.3846C71.9211 73.2923 71.7595 73.1538 71.6211 72.9692C71.4826 72.7846 71.3672 72.5999 71.298 72.3692C71.2288 72.1384 71.1826 71.8846 71.1826 71.6538C71.1826 71.423 71.2057 71.1923 71.2749 70.9846C71.3211 70.7538 71.4365 70.5461 71.5518 70.3615C71.6903 70.1769 71.8749 70.0153 72.0826 69.9C72.3365 69.7615 72.6134 69.7153 72.8903 69.7153C73.1211 69.7153 73.3288 69.7615 73.5365 69.8769C73.7442 69.9692 73.9057 70.1307 73.998 70.3384V69.8076H74.5749L74.598 73.1769ZM72.8903 72.9923C73.2365 73.0153 73.5595 72.8307 73.7442 72.5307C73.8365 72.3923 73.9057 72.2307 73.9288 72.0692C73.9749 71.9076 73.998 71.723 73.998 71.5615C73.998 71.3999 73.9749 71.2384 73.9519 71.0769C73.9288 70.9153 73.8595 70.7769 73.7672 70.6384C73.6749 70.523 73.5826 70.4076 73.4442 70.3384C73.3057 70.2692 73.1211 70.223 72.9595 70.223C72.7749 70.223 72.6134 70.2461 72.4518 70.3384C72.3134 70.4076 72.198 70.4999 72.1057 70.6384C72.0134 70.7769 71.9442 70.9153 71.9211 71.0769C71.8749 71.2384 71.8519 71.423 71.8519 71.5846C71.8519 71.7461 71.8749 71.9307 71.898 72.0923C71.9211 72.2538 71.9903 72.4153 72.0826 72.5538C72.1519 72.6923 72.2672 72.8076 72.4057 72.8769C72.5442 72.9692 72.7057 73.0153 72.8903 72.9923Z" fill="#313131" fill-opacity="0.6"/>
<path d="M79.0282 68.3774H81.2667C81.6821 68.3543 82.1205 68.4928 82.4436 68.7697C82.9744 69.4159 82.9744 70.362 82.4436 71.0082C82.1205 71.2851 81.7052 71.4467 81.2667 71.4005H79.6975V73.5005H79.0282V68.3774ZM79.7205 70.8236H81.059C81.359 70.8467 81.659 70.7774 81.9128 70.5928C82.259 70.2005 82.259 69.6005 81.9128 69.1851C81.659 69.0005 81.359 68.9313 81.059 68.9543H79.7205V70.8236Z" fill="#313131" fill-opacity="0.6"/>
<path d="M84.3135 68.3774H84.9135V73.4774H84.3135V68.3774Z" fill="#313131" fill-opacity="0.6"/>
<path d="M89.8746 73.4765C89.7362 73.5457 89.5977 73.5919 89.4362 73.5688C89.2977 73.5688 89.1592 73.5227 89.0669 73.4304C88.9515 73.315 88.9054 73.1534 88.9285 72.9919C88.7669 73.1765 88.5823 73.3381 88.3516 73.4304C88.1208 73.5227 87.89 73.5688 87.6362 73.5688C87.4746 73.5688 87.3131 73.5457 87.1516 73.5227C87.0131 73.4996 86.8746 73.4304 86.7592 73.3381C86.6439 73.2457 86.5516 73.1534 86.5054 73.015C86.4362 72.8765 86.4131 72.6919 86.4131 72.5304C86.4131 72.3457 86.4362 72.1842 86.5285 72.0227C86.5977 71.8842 86.69 71.7919 86.8054 71.6996C86.9208 71.6073 87.0592 71.5611 87.1977 71.515C87.3362 71.4688 87.4977 71.4227 87.6592 71.3996C87.8208 71.3765 87.9823 71.3534 88.1439 71.3304C88.2823 71.3073 88.4208 71.2842 88.5362 71.2611C88.6285 71.2381 88.7208 71.1919 88.8131 71.1227C88.8823 71.0534 88.9285 70.9611 88.9054 70.8688C88.9054 70.7534 88.8823 70.6381 88.8362 70.5457C88.79 70.4765 88.7208 70.4073 88.6516 70.3611C88.5592 70.315 88.49 70.2919 88.3977 70.2688C88.3054 70.2457 88.2131 70.2457 88.0977 70.2457C87.8669 70.2457 87.6592 70.2919 87.4515 70.3842C87.2669 70.4996 87.1516 70.7073 87.1746 70.9381H86.5746C86.5746 70.7304 86.6208 70.5457 86.7131 70.3611C86.8054 70.1996 86.9208 70.0842 87.0592 69.9688C87.2208 69.8765 87.3823 69.8073 87.5439 69.7611C87.7285 69.715 87.9362 69.6919 88.1208 69.6919C88.2823 69.6919 88.4439 69.715 88.6054 69.7381C88.7669 69.7611 88.9054 69.8073 89.0439 69.8765C89.1823 69.9457 89.2977 70.0611 89.3669 70.1996C89.4592 70.3611 89.5054 70.5457 89.4823 70.7304V72.6227C89.4823 72.7381 89.4823 72.8304 89.5054 72.9457C89.5285 73.015 89.5746 73.038 89.6669 73.038C89.7362 73.038 89.8054 73.015 89.8516 72.9919V73.4765H89.8746ZM88.8823 71.5842C88.8131 71.6304 88.7439 71.6534 88.6746 71.6765C88.5823 71.6996 88.49 71.7227 88.3977 71.7457C88.3054 71.7688 88.19 71.7688 88.0977 71.7919C88.0054 71.815 87.89 71.815 87.7746 71.8381C87.6823 71.8611 87.59 71.8842 87.4977 71.9073C87.4054 71.9304 87.3362 71.9765 87.2669 72.0227C87.1977 72.0688 87.1515 72.1381 87.1054 72.2073C87.0592 72.2996 87.0362 72.3919 87.0362 72.4842C87.0362 72.5765 87.0592 72.6688 87.1054 72.7381C87.1515 72.8073 87.1977 72.8534 87.2669 72.8996C87.3362 72.9457 87.4054 72.9688 87.4977 72.9919C87.59 73.015 87.6823 73.015 87.7746 73.015C87.9592 73.015 88.1208 72.9919 88.2823 72.9227C88.4208 72.8765 88.5362 72.8073 88.6285 72.715C88.7208 72.6457 88.79 72.5534 88.8362 72.4381C88.8823 72.3457 88.9054 72.2534 88.9054 72.1611L88.8823 71.5842Z" fill="#313131" fill-opacity="0.6"/>
<path d="M91.9971 69.7849H92.7356V70.3157H91.9971V72.6234C91.9971 72.6696 91.9971 72.7388 92.0202 72.7849C92.0202 72.8311 92.0664 72.8542 92.0894 72.8772C92.1356 72.9003 92.1817 72.9234 92.2279 72.9234C92.2971 72.9234 92.3894 72.9465 92.4587 72.9234H92.7356V73.4542H92.2741C92.1356 73.4542 91.9971 73.4542 91.8587 73.4311C91.7664 73.408 91.6741 73.3849 91.5817 73.3157C91.5125 73.2465 91.4664 73.1772 91.4202 73.0849C91.3741 72.9465 91.374 72.808 91.374 72.6696V70.3157H90.751V69.7849H91.374V68.6772H91.9741V69.7849H91.9971Z" fill="#313131" fill-opacity="0.6"/>
<path d="M94.374 70.3387H93.7509V69.8079H94.374V69.2541C94.3509 69.0003 94.4433 68.7464 94.6279 68.5618C94.8356 68.4003 95.1125 68.3079 95.3894 68.331C95.4586 68.331 95.5279 68.331 95.5971 68.3541C95.6663 68.3541 95.7356 68.3772 95.8048 68.4003V68.931C95.7586 68.9079 95.6894 68.9079 95.6433 68.8849C95.5971 68.8849 95.5279 68.8849 95.4817 68.8849C95.3663 68.8849 95.2509 68.908 95.1356 68.9772C95.0433 69.0695 94.9971 69.1849 95.0202 69.3003V69.8079H95.7356V70.3387H95.0202V73.5003H94.4202L94.374 70.3387Z" fill="#313131" fill-opacity="0.6"/>
<path d="M96.7512 71.6543C96.7512 71.4005 96.7974 71.1466 96.8666 70.8928C96.9358 70.662 97.0512 70.4543 97.2128 70.2697C97.3743 70.0851 97.5589 69.9466 97.7666 69.8543C98.2743 69.6466 98.8281 69.6466 99.3128 69.8543C99.5205 69.9466 99.7281 70.0851 99.8897 70.2697C100.051 70.4543 100.167 70.662 100.236 70.8928C100.305 71.1466 100.351 71.4005 100.351 71.6543C100.351 71.9082 100.305 72.162 100.236 72.4159C100.167 72.6466 100.051 72.8543 99.8897 73.0159C99.7281 73.2005 99.5435 73.3389 99.3128 73.4312C98.8051 73.6389 98.2512 73.6389 97.7666 73.4312C97.5589 73.3389 97.3512 73.2005 97.2128 73.0159C97.0512 72.8312 96.9358 72.6235 96.8666 72.4159C96.7974 72.162 96.7512 71.9082 96.7512 71.6543ZM97.3974 71.6543C97.3974 71.862 97.4204 72.0697 97.4897 72.2543C97.5358 72.4159 97.6281 72.5543 97.7435 72.6928C97.8358 72.8082 97.9743 72.9005 98.1128 72.9697C98.3897 73.0851 98.7128 73.0851 99.0128 72.9697C99.1512 72.9005 99.2897 72.8082 99.382 72.6928C99.4974 72.5774 99.5666 72.4159 99.6358 72.2543C99.7512 71.862 99.7512 71.4466 99.6358 71.0543C99.5897 70.8928 99.4974 70.7312 99.382 70.6159C99.2897 70.5005 99.1512 70.4082 99.0128 70.3389C98.7358 70.2235 98.4128 70.2235 98.1128 70.3389C97.9743 70.4082 97.8358 70.5005 97.7435 70.6159C97.6281 70.7543 97.5589 70.8928 97.4897 71.0543C97.4204 71.2389 97.3974 71.4466 97.3974 71.6543Z" fill="#313131" fill-opacity="0.6"/>
<path d="M101.76 69.7851H102.337V70.5697H102.36C102.475 70.2928 102.66 70.0851 102.914 69.9005C103.167 69.739 103.444 69.6697 103.721 69.6928V70.339C103.514 70.339 103.306 70.362 103.098 70.4313C102.937 70.5005 102.798 70.5928 102.683 70.7313C102.567 70.8697 102.498 71.0313 102.452 71.1928C102.406 71.4005 102.383 71.6082 102.383 71.8159V73.4543H101.783V69.7851H101.76Z" fill="#313131" fill-opacity="0.6"/>
<path d="M104.875 69.7846H105.452V70.3384H105.475C105.867 69.7384 106.652 69.5307 107.298 69.8538C107.483 69.9461 107.621 70.1307 107.69 70.3384C107.806 70.1538 107.99 69.9923 108.175 69.8769C108.383 69.7615 108.613 69.7153 108.844 69.7153C109.006 69.7153 109.19 69.7384 109.352 69.7846C109.49 69.8307 109.629 69.8769 109.744 69.9692C109.86 70.0615 109.929 70.1769 109.998 70.2923C110.067 70.4538 110.09 70.6153 110.09 70.7769V73.4999H109.49V71.0769C109.49 70.9615 109.49 70.8692 109.467 70.7538C109.444 70.6615 109.421 70.5692 109.352 70.4999C109.306 70.4307 109.213 70.3615 109.121 70.3153C109.006 70.2692 108.89 70.2461 108.752 70.2461C108.498 70.223 108.244 70.3153 108.06 70.4999C107.875 70.6846 107.783 70.9384 107.806 71.1923V73.4999H107.206V71.0769C107.206 70.9615 107.206 70.8461 107.183 70.7538C107.16 70.6615 107.137 70.5692 107.067 70.4999C107.021 70.4307 106.929 70.3615 106.86 70.3153C106.744 70.2692 106.629 70.2461 106.513 70.2461C106.352 70.2461 106.19 70.2692 106.052 70.3615C105.937 70.4307 105.844 70.523 105.752 70.6153C105.683 70.7076 105.613 70.823 105.567 70.9384C105.544 71.0307 105.521 71.123 105.521 71.2153V73.523H104.921L104.875 69.7846Z" fill="#313131" fill-opacity="0.6"/>
<path d="M1.4204 47.1C1.4204 47.6077 1.55886 48.0923 1.83578 48.5077C2.29732 49.1769 3.10501 49.5231 4.25886 49.5231C4.74348 49.5231 5.22809 49.4539 5.68963 49.3154C6.5204 49.0385 6.93579 48.5077 6.93579 47.7692C6.93579 47.2154 6.75117 46.8231 6.40502 46.5692C5.89733 46.2692 5.3204 46.0615 4.74348 45.9692L3.35886 45.6462C2.45886 45.4385 1.81271 45.2077 1.44347 44.9769C0.79732 44.5615 0.428089 43.8231 0.474243 43.0615C0.451166 42.2077 0.79732 41.3769 1.4204 40.8C2.06655 40.2 2.96655 39.9231 4.1204 39.9231C5.08963 39.9 6.03579 40.1769 6.84348 40.7077C7.60502 41.2154 7.97425 42.0462 7.97425 43.2H6.68194C6.65886 42.7385 6.49733 42.3 6.24348 41.9308C5.82809 41.4 5.11271 41.1231 4.09732 41.1231C3.28963 41.1231 2.68963 41.2846 2.34348 41.6308C1.99732 41.9308 1.81271 42.3692 1.81271 42.8308C1.78963 43.2923 2.0204 43.7308 2.43578 43.9385C2.71271 44.0769 3.33578 44.2615 4.30502 44.4923L5.73579 44.8154C6.31271 44.9308 6.84348 45.1385 7.32809 45.4615C7.97425 45.9462 8.29733 46.6385 8.29733 47.5385C8.29733 48.6692 7.88194 49.4769 7.05117 49.9615C6.17425 50.4692 5.18194 50.7231 4.18963 50.7C2.9204 50.7 1.92809 50.3769 1.21271 49.7308C0.49732 49.0846 0.128089 48.2077 0.151166 47.1H1.4204Z" fill="#EEA820"/>
<path d="M22.7429 41.6303C23.4121 42.5303 23.7583 43.6842 23.7583 45.0918C23.7583 46.6149 23.3659 47.8842 22.6044 48.8995C21.6813 50.0995 20.389 50.6995 18.7044 50.6995C17.1352 50.6995 15.889 50.1688 14.989 49.1303C14.1813 48.138 13.789 46.8688 13.789 45.3226C13.7429 44.0534 14.1121 42.8303 14.8275 41.7688C15.7044 40.4995 17.0198 39.8765 18.7506 39.8765C20.5275 39.8995 21.8659 40.4765 22.7429 41.6303ZM21.5198 48.1611C22.0736 47.2611 22.3506 46.1995 22.3275 45.138C22.3275 43.938 22.0044 42.9688 21.3813 42.2303C20.7583 41.4918 19.8813 41.1226 18.7967 41.1226C17.8044 41.0995 16.8582 41.4918 16.2121 42.2072C15.5429 42.9457 15.2198 44.0072 15.2198 45.4149C15.1967 46.4303 15.4967 47.4457 16.0736 48.2765C16.6506 49.0611 17.5736 49.4534 18.8659 49.4534C20.089 49.4534 20.9659 49.038 21.5198 48.1611Z" fill="#EEA820"/>
<path d="M31.1901 40.1772V46.5003C31.167 47.1464 31.3055 47.7695 31.6055 48.3464C32.0209 49.0849 32.7132 49.4541 33.7055 49.4541C34.8824 49.4541 35.667 49.0618 36.1055 48.2541C36.3593 47.7003 36.4747 47.1003 36.4516 46.5003V40.1772H37.8593V45.9233C37.8593 47.1926 37.6978 48.1618 37.3516 48.831C36.7286 50.0541 35.5516 50.6772 33.8209 50.6772C32.0901 50.6772 30.9132 50.0541 30.3132 48.831C29.967 48.1618 29.8055 47.1926 29.8055 45.9233V40.1772H31.1901Z" fill="#EEA820"/>
<path d="M44.2284 40.1772H46.213L49.1438 48.831L52.0745 40.1772H54.0361V50.4003H52.7207V44.3541C52.7207 44.1464 52.7207 43.8003 52.7438 43.3156C52.7668 42.831 52.7668 42.3233 52.7668 41.7695L49.8591 50.4003H48.4745L45.5437 41.7695V42.0926C45.5437 42.3464 45.5437 42.7156 45.5668 43.2464C45.5899 43.7772 45.5899 44.1464 45.5899 44.3772V50.4233H44.2284V40.1772Z" fill="#EEA820"/>
<path d="M67.8588 40.1772V41.4003H64.4204V50.4003H63.0127V41.4003H59.5742V40.1772H67.8588Z" fill="#EEA820"/>
<path d="M73.5352 40.1772H80.989V41.4234H74.8736V44.5388H80.5275V45.7157H74.8736V49.1772H81.0813V50.4003H73.5352V40.1772Z" fill="#EEA820"/>
<path d="M94.5133 40.9155C95.1825 41.5155 95.621 42.3463 95.7133 43.2463H94.3517C94.2363 42.6463 93.8902 42.0925 93.4286 41.6771C92.9671 41.2848 92.3209 41.1002 91.5133 41.1002C90.5902 41.0771 89.6902 41.4694 89.0671 42.1617C88.444 42.8771 88.144 43.9617 88.144 45.4155C88.144 46.6155 88.4209 47.5848 88.9748 48.3232C89.5286 49.0617 90.3594 49.4309 91.4902 49.4309C92.4133 49.4771 93.3133 49.0386 93.8209 48.254C94.144 47.7463 94.3517 47.2155 94.444 46.6155H95.8056C95.7133 47.6309 95.2979 48.5771 94.6056 49.3155C93.7979 50.1925 92.6902 50.6309 91.3286 50.6309C90.2209 50.654 89.1594 50.2848 88.3286 49.5463C87.2671 48.6002 86.7363 47.1232 86.7363 45.1386C86.7363 43.6386 87.1286 42.3925 87.9363 41.4232C88.7902 40.3848 89.9902 39.854 91.5133 39.854C92.8056 39.9002 93.7979 40.2463 94.5133 40.9155Z" fill="#EEA820"/>
<path d="M101.805 40.1772H103.213V44.4003H108.52V40.1772H109.928V50.4003H108.52V45.6233H103.213V50.4003H101.805V40.1772Z" fill="#EEA820"/>
<path d="M25.9289 20.9075V24.8306H9.89044C3.4289 24.8306 0.428894 21.6229 0.428894 15.7152V10.1075H4.35197V15.2998C4.35197 19.269 6.79813 20.9075 10.7212 20.9075H18.5212V-0.000183105H22.4212V20.9075H25.9289ZM15.2443 10.2921H8.45967V6.53058C8.45967 4.38443 9.79813 2.99982 11.9443 2.99982H14.1366V5.26135H12.1751C11.4135 5.26135 10.952 5.69982 10.952 6.4152V7.26905H15.2443V10.2921Z" fill="#171D5B"/>
<path d="M39.4975 24.8306H25.3282V20.9075H30.1744V7.54597H34.0744V20.9306H39.5205L39.4975 24.8306ZM26.7359 2.23828C26.7359 0.922894 27.8205 -0.000183105 29.1821 -0.000183105C30.5436 -0.000183105 31.6282 0.922894 31.6282 2.23828C31.6282 3.7152 30.4975 4.47674 29.1821 4.47674C27.8667 4.47674 26.7359 3.7152 26.7359 2.23828ZM32.8513 2.23828C32.8513 0.922894 33.9128 -0.000183105 35.2975 -0.000183105C36.6821 -0.000183105 37.7436 0.922894 37.7436 2.23828C37.7436 3.7152 36.6128 4.47674 35.2975 4.47674C33.9821 4.47674 32.8513 3.7152 32.8513 2.23828Z" fill="#171D5B"/>
<path d="M58.6282 19.0158V19.0389C58.6282 24.5312 55.1667 28.2005 49.9975 28.2005H49.9744C46.9513 28.2005 44.5052 26.9543 43.0052 24.8312H38.8975V20.9081H41.459C41.3667 20.2851 41.2975 19.662 41.2975 19.0389V19.0158C41.2975 13.3851 44.759 9.62354 49.9513 9.62354H49.9744C55.1667 9.62354 58.6282 13.3851 58.6282 19.0158ZM54.7282 18.9235C54.7282 15.6697 52.8359 13.5466 49.9975 13.5466H49.9744C47.1359 13.5466 45.1975 15.6928 45.1975 18.9235V18.9466C45.1975 22.1543 47.1359 24.2774 49.9744 24.2774H49.9975C52.8359 24.2774 54.7513 22.1312 54.7513 18.9466L54.7282 18.9235Z" fill="#171D5B"/>
<path d="M109.998 7.33887V16.4542C109.998 22.2466 107.436 25.1081 101.967 25.1081C99.0362 25.1081 96.6362 23.8158 95.667 21.6235C94.467 23.6542 92.3208 24.8081 89.39 24.8081H79.2362V20.885H82.9977V9.62348H86.8977V20.9081H89.367C91.6285 20.9081 93.9823 19.7773 93.9823 16.5696V9.62348H97.9054V17.1235C97.9054 19.6619 99.5208 21.2312 101.967 21.2312C104.529 21.2312 106.075 19.7542 106.075 16.8927V7.33887H109.998Z" fill="#171D5B"/>
<path d="M77.3436 6.41498H73.0744V10.6842H77.3436V6.41498Z" fill="#EEA820"/>
<path d="M76.2357 20.9076V12.7615H72.3126V20.9076H70.5588C67.3973 20.9076 65.0665 19.1307 65.0665 16.223V16.1999C65.0665 13.1999 67.3742 11.423 70.5588 11.423H70.9973V7.54608C65.2049 7.70762 61.3972 11.0999 61.3972 16.1999V16.223C61.3972 21.3922 65.228 24.8307 70.8819 24.8307H72.3126C72.2665 26.0999 71.7126 26.8384 70.8357 27.2538C70.1203 27.5538 69.3588 27.6692 68.5742 27.6461C66.8203 27.623 65.0896 27.3461 63.428 26.8153L64.2357 30.9461C65.6896 31.3615 67.2126 31.5692 68.7357 31.5692C72.7973 31.5692 75.2434 30.3461 75.9819 26.6538C76.0973 26.0538 76.1896 25.4307 76.2126 24.8307H79.8588V20.9076H76.2357Z" fill="#171D5B"/>
</svg>
