<svg width="32" height="33" viewBox="0 0 32 33" fill="none" xmlns="http://www.w3.org/2000/svg">
<g clip-path="url(#clip0_2_1509)">
<path fill-rule="evenodd" clip-rule="evenodd" d="M16 5.5C9.92487 5.5 5 10.4249 5 16.5C5 22.5751 9.92487 27.5 16 27.5C22.0751 27.5 27 22.5751 27 16.5C27 10.4249 22.0751 5.5 16 5.5ZM3 16.5C3 9.3203 8.8203 3.5 16 3.5C23.1797 3.5 29 9.3203 29 16.5C29 23.6797 23.1797 29.5 16 29.5C8.8203 29.5 3 23.6797 3 16.5Z" fill="white"/>
<path fill-rule="evenodd" clip-rule="evenodd" d="M16 11.5C13.7909 11.5 12 13.2909 12 15.5C12 17.7091 13.7909 19.5 16 19.5C18.2091 19.5 20 17.7091 20 15.5C20 13.2909 18.2091 11.5 16 11.5ZM10 15.5C10 12.1863 12.6863 9.5 16 9.5C19.3137 9.5 22 12.1863 22 15.5C22 18.8137 19.3137 21.5 16 21.5C12.6863 21.5 10 18.8137 10 15.5Z" fill="white"/>
<path fill-rule="evenodd" clip-rule="evenodd" d="M15.9996 21.4956C14.5222 21.4956 13.0737 21.9047 11.8146 22.6775C10.5555 23.4504 9.53503 24.5568 8.86625 25.8741C8.61623 26.3665 8.01434 26.5631 7.52189 26.313C7.02943 26.063 6.8329 25.4611 7.08291 24.9687C7.9189 23.322 9.19452 21.9391 10.7684 20.973C12.3423 20.007 14.1529 19.4956 15.9996 19.4956C17.8463 19.4956 19.6569 20.007 21.2308 20.973C22.8046 21.9391 24.0803 23.322 24.9162 24.9687C25.1663 25.4611 24.9697 26.063 24.4773 26.313C23.9848 26.5631 23.3829 26.3665 23.1329 25.8741C22.4641 24.5568 21.4436 23.4504 20.1845 22.6775C18.9254 21.9047 17.4769 21.4956 15.9996 21.4956Z" fill="white"/>
</g>
<defs>
<clipPath id="clip0_2_1509">
<rect width="32" height="32" fill="white" transform="translate(0 0.5)"/>
</clipPath>
</defs>
</svg>
