<svg width="19" height="20" viewBox="0 0 19 20" fill="none" xmlns="http://www.w3.org/2000/svg">
<path d="M15.7801 19.1083C15.7051 19.1083 15.6301 19.1083 15.5467 19.1C12.8551 18.8083 10.2384 17.875 7.98006 16.4083C5.88006 15.075 4.06339 13.2583 2.73006 11.1583C1.26339 8.89165 0.33006 6.26665 0.0467268 3.57498C0.0133934 3.21665 0.0550601 2.87498 0.163393 2.54165C0.271727 2.20831 0.45506 1.90831 0.688393 1.64998C0.921727 1.39165 1.20506 1.19165 1.52173 1.04998C1.84673 0.908313 2.18839 0.833313 2.53839 0.833313H5.03839C5.62173 0.833313 6.22173 1.04165 6.68839 1.44165C7.14673 1.83331 7.44673 2.38331 7.53006 2.98331C7.63006 3.72498 7.81339 4.45831 8.07173 5.14998C8.23839 5.59998 8.28006 6.08331 8.17173 6.54998C8.07173 7.01665 7.83839 7.44998 7.50506 7.78331L6.90506 8.38331C7.88839 9.91665 9.18839 11.225 10.7301 12.2083L11.3301 11.6083C11.6717 11.2666 12.1051 11.0333 12.5717 10.9416C13.0384 10.8416 13.5217 10.875 13.9717 11.0416C14.6634 11.3 15.3967 11.4833 16.1301 11.5833C16.7467 11.6666 17.2967 11.975 17.6967 12.4416C18.0884 12.9083 18.3051 13.5 18.2884 14.1083V16.6C18.2884 16.95 18.2217 17.2833 18.0801 17.6083C17.9384 17.925 17.7301 18.2166 17.4801 18.45C17.2217 18.6833 16.9217 18.8666 16.5884 18.975C16.3217 19.0666 16.0551 19.1083 15.7801 19.1083ZM5.05506 2.49998H5.04673H2.53839C2.42173 2.49998 2.31339 2.52498 2.20506 2.57498C2.09673 2.61665 1.99673 2.68331 1.92173 2.76665C1.83839 2.84998 1.78006 2.94998 1.74673 3.06665C1.71339 3.17498 1.69673 3.29165 1.70506 3.40831C1.96339 5.83331 2.80506 8.19998 4.13006 10.2583C5.33839 12.1583 6.98006 13.8 8.88006 15.0083C10.9301 16.3416 13.2967 17.175 15.7134 17.4416C15.8134 17.45 15.9301 17.4333 16.0384 17.4C16.1467 17.3666 16.2467 17.3 16.3384 17.225C16.4301 17.15 16.4967 17.05 16.5384 16.9416C16.5884 16.8333 16.6051 16.7166 16.6051 16.6V14.1C16.6051 14.0916 16.6051 14.0833 16.6051 14.0833C16.6134 13.875 16.5384 13.6833 16.4051 13.525C16.2717 13.3666 16.0884 13.2666 15.8884 13.2416C15.0384 13.1333 14.1884 12.9166 13.3717 12.6166C13.2217 12.5583 13.0551 12.55 12.9051 12.5833C12.7467 12.6166 12.6051 12.6916 12.4884 12.8083L11.4384 13.8666C11.1717 14.1333 10.7634 14.1833 10.4384 14C8.22173 12.7416 6.38839 10.9 5.12173 8.69165C4.94673 8.34165 4.99673 7.93331 5.26339 7.66665L6.32173 6.60831C6.43006 6.49998 6.50506 6.35831 6.53839 6.19998C6.57173 6.04165 6.56339 5.88331 6.50506 5.73331C6.19673 4.91665 5.98839 4.06665 5.87173 3.20831C5.84673 3.01665 5.74673 2.83331 5.59673 2.69998C5.44673 2.57498 5.25506 2.49998 5.05506 2.49998Z" fill="#757575"/>
</svg>
