<svg width="15" height="13" viewBox="0 0 15 13" fill="none" xmlns="http://www.w3.org/2000/svg">
<path d="M13.3657 3.48797C13.3715 3.61997 13.3715 3.74597 13.3715 3.87797C13.3773 7.87999 10.437 12.5 5.05997 12.5C3.47407 12.5 1.9171 12.026 0.580078 11.138C0.811597 11.168 1.04312 11.18 1.27464 11.18C2.58851 11.18 3.86765 10.724 4.9037 9.87799C3.65349 9.85399 2.55378 9.00799 2.17177 7.77199C2.61166 7.86199 3.06312 7.84399 3.49143 7.71799C2.13126 7.44198 1.15309 6.19998 1.1473 4.75398C1.1473 4.74198 1.1473 4.72998 1.1473 4.71798C1.55246 4.95198 2.00971 5.08398 2.47275 5.09598C1.1936 4.20797 0.794233 2.43797 1.56982 1.05196C3.05733 2.94797 5.24519 4.09397 7.59511 4.21997C7.3578 3.16997 7.68193 2.06597 8.44015 1.32196C9.61511 0.17596 11.4673 0.235961 12.5786 1.45396C13.2326 1.32196 13.8635 1.06996 14.4365 0.715962C14.2166 1.41796 13.7593 2.01197 13.1516 2.38997C13.7304 2.31797 14.2976 2.15597 14.8301 1.91597C14.4365 2.52797 13.9387 3.05597 13.3657 3.48797Z" fill="#1D9BF0"/>
</svg>
